<?xml version="1.0" encoding="UTF-8"?>
<svg width="116px" height="116px" viewBox="0 0 116 116" version="1.1" xmlns="http://www.w3.org/2000/svg" xmlns:xlink="http://www.w3.org/1999/xlink">
    <title>ICON</title>
    <g id="Page-1" stroke="none" stroke-width="1" fill="none" fill-rule="evenodd">
        <g id="home-0" transform="translate(-907.000000, -2444.000000)">
            <g id="HOW" transform="translate(-2.000000, 2072.000000)">
                <g id="2" transform="translate(828.000000, 374.000000)">
                    <g id="ICON" transform="translate(83.000000, 0.000000)">
                        <path d="M56,112 C86.927946,112 112,86.927946 112,56 C112,25.072054 86.927946,0 56,0 C25.072054,0 0,25.072054 0,56 C0,86.927946 25.072054,112 56,112 Z" id="Oval-Copy" stroke="#FBBA00" stroke-width="3" stroke-linecap="round" stroke-dasharray="0,11"></path>
                        <circle id="Oval-Copy-2" fill="#000000" cx="56" cy="56" r="49"></circle>
                        <g id="resume" transform="translate(36.000000, 33.000000)" fill="#FFFFFF" fill-rule="nonzero">
                            <path d="M36.1273585,13.0737305 C36.6092311,13.0737305 37,12.6802441 37,12.1948242 L37,2.63671875 C37,1.18283203 35.8255991,0 34.3820755,0 L2.61792453,0 C1.17440094,0 0,1.18283203 0,2.63671875 L0,42.3632812 C0,43.817168 1.17440094,45 2.61792453,45 L34.3820755,45 C35.8255991,45 37,43.817168 37,42.3632812 L37,35.8882031 C37,35.4027832 36.6092311,35.0092969 36.1273585,35.0092969 C35.6454858,35.0092969 35.254717,35.4027832 35.254717,35.8882031 L35.254717,42.3632812 C35.254717,42.8479102 34.86325,43.2421875 34.3820755,43.2421875 L2.61792453,43.2421875 C2.13675,43.2421875 1.74528302,42.8479102 1.74528302,42.3632812 L1.74528302,2.63671875 C1.74528302,2.15208984 2.13675,1.7578125 2.61792453,1.7578125 L34.3820755,1.7578125 C34.86325,1.7578125 35.254717,2.15208984 35.254717,2.63671875 L35.254717,12.1948242 C35.254717,12.6802441 35.6454858,13.0737305 36.1273585,13.0737305 Z" id="Path"></path>
                            <path d="M19,5 C14.5887826,5 11,8.58880211 11,13.0000435 C11,15.2884907 11.966087,17.3552845 13.5114783,18.8147707 C13.5404348,18.8457274 13.5712174,18.8750319 13.6048696,18.9017277 C15.0284348,20.2042565 16.9229565,21 18.999913,21 C21.0768696,21 22.9713913,20.2041696 24.3949565,18.9017277 C24.4286087,18.8750319 24.4593913,18.8456405 24.4883478,18.8147707 C26.033913,17.3552845 27,15.2884907 27,13.0000435 C27,8.58880211 23.4112174,5 19,5 Z M19,19.2609471 C17.580087,19.2609471 16.2696522,18.7851184 15.2181739,17.9854619 C15.9824348,16.6302371 17.4086087,15.7826673 19,15.7826673 C20.5913913,15.7826673 22.0175652,16.6302371 22.7818261,17.9854619 C21.7302609,18.7851184 20.419913,19.2609471 19,19.2609471 Z M17.6086957,12.6522155 L17.6086957,12.086995 C17.6086957,11.3198604 18.2328696,10.6956831 19,10.6956831 C19.7671304,10.6956831 20.3913043,11.3198604 20.3913043,12.086995 L20.3913043,12.6522155 C20.3913043,13.4193501 19.7671304,14.0435274 19,14.0435274 C18.2328696,14.0435274 17.6086957,13.4193501 17.6086957,12.6522155 Z M24.0382609,16.7116289 C23.3969565,15.7604933 22.5081739,15.0207501 21.4762609,14.564052 C21.8858261,14.0347448 22.1304348,13.3716977 22.1304348,12.6522155 L22.1304348,12.086995 C22.1304348,10.3608117 20.7261739,8.95654324 19,8.95654324 C17.2738261,8.95654324 15.8695652,10.3608117 15.8695652,12.086995 L15.8695652,12.6522155 C15.8695652,13.3716977 16.1141739,14.0347448 16.5237391,14.564052 C15.4918261,15.0207501 14.6030435,15.7604933 13.9617391,16.7116289 C13.194,15.6722319 12.7391304,14.3884858 12.7391304,13.0000435 C12.7391304,9.54776385 15.5477391,6.73913989 19,6.73913989 C22.4522609,6.73913989 25.2608696,9.54776385 25.2608696,13.0000435 C25.2608696,14.3884858 24.806,15.6722319 24.0382609,16.7116289 Z" id="Shape"></path>
                            <path d="M23.1891892,39 L18.8108108,39 C18.3630811,39 18,39.4477 18,40 C18,40.5523 18.3630811,41 18.8108108,41 L23.1891892,41 C23.6369189,41 24,40.5523 24,40 C24,39.4477 23.6369189,39 23.1891892,39 Z" id="Path"></path>
                            <path d="M23.1358025,34 L10.8641975,34 C10.3869877,34 10,34.4477 10,35 C10,35.5523 10.3869877,36 10.8641975,36 L23.1358025,36 C23.6130123,36 24,35.5523 24,35 C24,34.4477 23.6130123,34 23.1358025,34 Z" id="Path"></path>
                            <path d="M23.1358025,29 L10.8641975,29 C10.3869877,29 10,29.4477 10,30 C10,30.5523 10.3869877,31 10.8641975,31 L23.1358025,31 C23.6130123,31 24,30.5523 24,30 C24,29.4477 23.6130123,29 23.1358025,29 Z" id="Path"></path>
                            <path d="M7.70704648,24.293 C7.52123938,24.107 7.26336832,24 6.99950025,24 C6.73653173,24 6.47866067,24.107 6.29285357,24.293 C6.10694653,24.479 6,24.737 6,25 C6,25.263 6.10684658,25.521 6.29285357,25.707 C6.47976012,25.893 6.73653173,26 6.99950025,26 C7.26336832,26 7.52023988,25.893 7.70704648,25.707 C7.89295352,25.521 8,25.263 8,25 C8,24.737 7.89305347,24.479 7.70704648,24.293 Z" id="Path"></path>
                            <path d="M7.70704648,29.293 C7.52023988,29.107 7.26336832,29 6.99950025,29 C6.73653173,29 6.47976012,29.107 6.29285357,29.293 C6.10694653,29.479 6,29.737 6,30 C6,30.263 6.10684658,30.521 6.29285357,30.707 C6.47976012,30.893 6.73653173,31 6.99950025,31 C7.26336832,31 7.52023988,30.893 7.70704648,30.707 C7.89295352,30.521 8,30.263 8,30 C8,29.737 7.89305347,29.479 7.70704648,29.293 Z" id="Path"></path>
                            <path d="M7.70704648,34.293 C7.52023988,34.107 7.26336832,34 6.99950025,34 C6.73653173,34 6.47976012,34.107 6.29285357,34.293 C6.10694653,34.479 6,34.737 6,35 C6,35.263 6.10684658,35.521 6.29285357,35.707 C6.47866067,35.893 6.73653173,36 6.99950025,36 C7.26336832,36 7.52123938,35.893 7.70704648,35.707 C7.89295352,35.521 8,35.263 8,35 C8,34.737 7.89305347,34.479 7.70704648,34.293 Z" id="Path"></path>
                            <path d="M23.1358025,24 L10.8641975,24 C10.3869877,24 10,24.4477 10,25 C10,25.5523 10.3869877,26 10.8641975,26 L23.1358025,26 C23.6130123,26 24,25.5523 24,25 C24,24.4477 23.6130123,24 23.1358025,24 Z" id="Path"></path>
                            <path d="M43.1398078,12.4911103 C42.2788862,12.0031163 41.2759104,11.8734834 40.315471,12.1260501 C39.3552089,12.3787038 38.5525092,12.9833674 38.0555407,13.8285915 L26.9037038,32.7918 C26.8426461,32.8957673 26.8040088,33.0110449 26.7904502,33.1303246 L26.0054741,40.0334082 C25.9664823,40.376892 26.1382235,40.7105445 26.4430686,40.8834174 C26.580692,40.9613711 26.7335576,41 26.8860688,41 C27.0714572,41 27.2561366,40.9430137 27.4116608,40.8305202 L33.1083653,36.7114993 C33.2068196,36.6403317 33.2892342,36.5499367 33.3502918,36.4459693 L44.5020401,17.4827608 C45.5282339,15.7378495 44.9171258,13.498593 43.1398078,12.4911103 Z M27.9915755,38.250129 L28.4015212,34.6454637 L30.9662966,36.0992665 L27.9915755,38.250129 Z M32.2585209,34.8224257 L28.8817409,32.9083826 L37.8308061,17.6908695 L41.2075861,19.6049127 L32.2585209,34.8224257 Z M42.9671804,16.6126542 L42.0936751,18.0980387 L38.7168951,16.1839956 L39.5904004,14.6986111 C39.8507594,14.2558581 40.2711621,13.939171 40.7741566,13.806841 C41.2773282,13.674424 41.8026544,13.7424595 42.2535416,13.9980713 C42.7045174,14.253683 43.027086,14.6664203 43.1618737,15.1602435 C43.2966613,15.6540666 43.2275394,16.1699012 42.9671804,16.6126542 Z" id="Shape"></path>
                        </g>
                    </g>
                </g>
            </g>
        </g>
    </g>
</svg>