<?xml version="1.0" encoding="UTF-8"?>
<svg width="199px" height="59px" viewBox="0 0 199 59" version="1.1" xmlns="http://www.w3.org/2000/svg" xmlns:xlink="http://www.w3.org/1999/xlink">
    <title>Get_it_on_Google_Play_(2016)_(Print_2)</title>
    <g id="Page-1" stroke="none" stroke-width="1" fill="none" fill-rule="evenodd">
        <g id="home-0" transform="translate(-977.000000, -5560.000000)" fill="#000000" fill-rule="nonzero">
            <g id="Group-14" transform="translate(744.000000, 5560.000000)">
                <g id="Get_it_on_Google_Play_(2016)_(Print_2)" transform="translate(233.000000, 0.000000)">
                    <path d="M191.629639,1.18182857 C195.042087,1.18182857 197.818869,3.96037372 197.818869,7.37498001 L197.818869,51.6250124 C197.818869,55.0396263 195.042087,57.8181714 191.629639,57.8181714 L7.37036225,57.8181714 C3.95785696,57.8181714 1.18107653,55.0396263 1.18107653,51.6250124 L1.18107653,7.37498001 C1.18107653,3.96037372 3.95785696,1.18182857 7.37036225,1.18182857 L191.629639,1.18182857 L191.629639,1.18182857 Z M191.629639,0 L7.37036225,0 C3.31846382,0 0,3.32058145 0,7.37498001 L0,51.6250124 C0,55.6794109 3.31846382,59 7.37036225,59 L191.629639,59 C195.681485,59 199,55.6794109 199,51.6250124 L199,7.37498001 C199,3.32058145 195.681485,0 191.629639,0 L191.629639,0 Z" id="path16"></path>
                    <path d="M65.7088898,10.0188679 C64.4502311,10.0188679 63.3611837,10.4510556 62.4782583,11.3010443 C61.5923769,12.1505926 61.1452514,13.216835 61.1452514,14.4717017 C61.1452514,15.7265897 61.5915749,16.7903242 62.4768433,17.6465223 L62.4768433,17.6479432 L62.4782924,17.6479432 C63.3613264,18.4913744 64.4498464,18.9245283 65.7089239,18.9245283 C67.0221021,18.9245283 68.1137476,18.4996512 68.9437996,17.6604258 L68.9452486,17.6590049 C69.6713737,16.9455574 70.0391061,15.9823799 70.0391061,14.8061102 L70.0391061,14.7339498 L70.0306148,14.7282662 C70.0269921,14.5426258 70.0174502,14.3527582 69.9725951,14.1524115 L69.9470586,14.0429384 L65.5673813,14.0429384 L65.5673813,15.3139749 L68.597071,15.3139749 C68.5146617,15.9090828 68.3402896,16.4093244 67.9885858,16.7515266 C67.3839159,17.3374484 66.6272276,17.6326472 65.7088898,17.6326472 C64.8482471,17.6326472 64.1140545,17.3390398 63.4787214,16.7570752 L63.4772723,16.7556543 C62.8541474,16.1691002 62.5433189,15.4128553 62.5433189,14.4702808 C62.5433189,13.5269674 62.8541945,12.7789424 63.4786881,12.1918483 C64.1136922,11.6034684 64.8472226,11.3162763 65.7088565,11.3162763 C66.6699432,11.3162763 67.3955684,11.6199082 67.9390249,12.2418 L68.03808,12.3555856 L68.9805249,11.434218 L68.8970346,11.3370854 C68.55347,10.9353547 68.0821404,10.6140611 67.5116701,10.3782558 C66.9404094,10.1450579 66.3387093,10.0188679 65.7088565,10.0188679 L65.7088898,10.0188679 Z" id="path20"></path>
                    <polygon id="path24" points="71.150838 10.0188679 71.150838 18.9245283 77.8212291 18.9245283 77.8212291 17.5767272 72.9024211 17.5767272 72.9024211 15.1361788 77.3361695 15.1361788 77.3361695 13.8086644 72.9024211 13.8086644 72.9024211 11.366669 77.8212291 11.366669 77.8212291 11.2217455 77.8212291 10.0188679"></polygon>
                    <polygon id="path28" points="77.8212291 10.0188679 77.8212291 11.366669 80.4062931 11.366669 80.4062931 18.9245283 81.906556 18.9245283 81.906556 18.7796048 81.906556 11.366669 84.4916201 11.366669 84.4916201 10.0188679"></polygon>
                    <polygon id="path32" points="87.8268156 10.0188679 87.8268156 18.9245283 87.9399316 18.9245283 88.9385475 18.9245283 88.9385475 10.0188679"></polygon>
                    <polygon id="path36" points="90.0502793 10.0188679 90.0502793 11.366669 92.6415866 11.366669 92.6415866 18.9245283 94.1308976 18.9245283 94.1308976 18.7796048 94.1308976 11.366669 96.7206704 11.366669 96.7206704 10.0188679"></polygon>
                    <path d="M105.618003,10.0188679 C104.358996,10.0188679 103.292683,10.4521457 102.44272,11.3107299 C101.594846,12.1672964 101.167598,13.2311381 101.167598,14.4716981 C101.167598,15.7122724 101.594903,16.7760998 102.44272,17.6326663 C103.292683,18.4912505 104.358996,18.9245283 105.618003,18.9245283 C106.87024,18.9245283 107.936367,18.4913074 108.786323,17.6326663 C109.634205,16.7760998 110.061453,15.7122653 110.061453,14.4716981 C110.061453,13.2382497 109.633171,12.1804896 108.779367,11.317671 C107.929383,10.4519823 106.863419,10.0188679 105.618003,10.0188679 L105.618003,10.0188679 Z M105.618003,11.3093445 C106.47984,11.3093445 107.200542,11.6027125 107.791005,12.1960272 C108.385282,12.7882549 108.684709,13.5401786 108.684709,14.4716981 C108.684709,15.4032389 108.385425,16.1537772 107.791005,16.7459836 C107.200542,17.3392131 106.479826,17.6326663 105.618003,17.6326663 C104.748968,17.6326663 104.036206,17.3388792 103.438045,16.7445982 C102.844338,16.1525126 102.544342,15.4027842 102.544342,14.4716981 C102.544342,13.540612 102.844188,12.7894982 103.438045,12.1974126 C104.036213,11.6032311 104.748975,11.3093445 105.618003,11.3093445 L105.618003,11.3093445 Z" id="path40"></path>
                    <polygon id="path44" points="111.173184 10.0188679 111.173184 18.9245283 111.332397 18.9245283 112.72993 18.9245283 112.72993 13.4101192 112.689748 12.1912957 117.406606 18.9245283 118.955307 18.9245283 118.955307 10.0188679 117.390525 10.0188679 117.390525 15.2100911 117.430707 16.4245665 112.934166 10.0188679"></polygon>
                    <path d="M100.537909,32.6788626 C97.0267435,32.6788626 94.1584182,35.3660932 94.1584182,39.0737098 C94.1584182,42.7512763 97.0267435,45.4666634 100.537909,45.4666634 C104.05652,45.4666634 106.924899,42.7512763 106.924899,39.0737098 C106.924899,35.3660932 104.05652,32.6788626 100.537909,32.6788626 Z M100.537909,42.9485658 C98.6113401,42.9485658 96.9538625,41.3493883 96.9538625,39.0737098 C96.9538625,36.7679734 98.6113401,35.196968 100.537909,35.196968 C102.464479,35.196968 104.129401,36.7679734 104.129401,39.0737098 C104.129401,41.3493883 102.464479,42.9485658 100.537909,42.9485658 Z M86.6184821,32.6788626 C83.0998717,32.6788626 80.2389909,35.3660932 80.2389909,39.0737098 C80.2389909,42.7512763 83.0998717,45.4666634 86.6184821,45.4666634 C90.1352238,45.4666634 92.9979657,42.7512763 92.9979657,39.0737098 C92.9979657,35.3660932 90.1352238,32.6788626 86.6184821,32.6788626 Z M86.6184821,42.9485658 C84.6900517,42.9485658 83.0269907,41.3493883 83.0269907,39.0737098 C83.0269907,36.7679734 84.6900517,35.196968 86.6184821,35.196968 C88.5450438,35.196968 90.2025291,36.7679734 90.2025291,39.0737098 C90.2025291,41.3493883 88.5450438,42.9485658 86.6184821,42.9485658 Z M70.0550033,34.6388282 L70.0550033,37.356109 L76.5073741,37.356109 C76.3185469,38.8745266 75.8140773,39.9907518 75.0404626,40.768711 C74.098712,41.7082906 72.6318029,42.7512763 70.0550033,42.7512763 C66.0841742,42.7512763 62.9747778,39.5284435 62.9747778,35.5352185 C62.9747778,31.5419391 66.0841742,28.3191607 70.0550033,28.3191607 C72.2020167,28.3191607 73.7641838,29.1629089 74.9171377,30.2565887 L76.8212699,28.3416983 C75.2086573,26.7932848 73.0634494,25.6037736 70.0550033,25.6037736 C64.6098251,25.6037736 60.0335196,30.0592992 60.0335196,35.5352185 C60.0335196,41.0111378 64.6098251,45.4666634 70.0550033,45.4666634 C72.9980655,45.4666634 75.2086573,44.4969793 76.9464605,42.6779824 C78.7272677,40.8870878 79.2822392,38.3689824 79.2822392,36.335723 C79.2822392,35.7043437 79.2315162,35.1236664 79.1362559,34.6388282 L70.0550033,34.6388282 Z M137.785224,36.7453815 C137.259901,35.315337 135.640073,32.6788626 132.340052,32.6788626 C129.069954,32.6788626 126.347391,35.2702618 126.347391,39.0737098 C126.347391,42.6553827 129.041938,45.4666634 132.654001,45.4666634 C135.574689,45.4666634 137.260183,43.6758308 137.953419,42.6328451 L135.785835,41.1802631 C135.062668,42.2438927 134.077908,42.9485658 132.654001,42.9485658 C131.23946,42.9485658 130.22477,42.2964805 129.574485,41.0111378 L138.078609,37.4726465 L137.785224,36.7453815 Z M129.114819,38.8745266 C129.042129,36.4090168 131.018956,35.1462118 132.435366,35.1462118 C133.545309,35.1462118 134.487118,35.7042351 134.801075,36.5030167 L129.114819,38.8745266 Z M122.202789,45.0776567 L124.998233,45.0776567 L124.998233,26.2859013 L122.202789,26.2859013 L122.202789,45.0776567 Z M117.624623,34.1032804 L117.531056,34.1032804 C116.903204,33.3553714 115.705437,32.6788626 114.188085,32.6788626 C111.003949,32.6788626 108.09262,35.4900812 108.09262,39.0943538 C108.09262,42.6779824 111.003949,45.4666634 114.188085,45.4666634 C115.705437,45.4666634 116.903204,44.7845357 117.531056,44.0140813 L117.624623,44.0140813 L117.624623,44.931069 C117.624623,47.3758805 116.325914,48.6894418 114.231203,48.6894418 C112.523277,48.6894418 111.463775,47.4491744 111.026496,46.406243 L108.595396,47.426629 C109.296191,49.1216379 111.151679,51.2075472 114.231203,51.2075472 C117.508791,51.2075472 120.274359,49.2682255 120.274359,44.5496291 L120.274359,33.0678693 L117.624623,33.0678693 L117.624623,34.1032804 Z M114.427414,42.9485658 C112.500845,42.9485658 110.888232,41.3268507 110.888232,39.0943538 C110.888232,36.8412129 112.500845,35.196968 114.427414,35.196968 C116.325914,35.196968 117.822695,36.8412129 117.822695,39.0943538 C117.822695,41.3268507 116.325914,42.9485658 114.427414,42.9485658 Z M150.873098,26.2859013 L144.187148,26.2859013 L144.187148,45.0776567 L146.975155,45.0776567 L146.975155,37.9574924 L150.873098,37.9574924 C153.969418,37.9574924 157.005938,35.7043437 157.005938,32.1207228 C157.005938,28.5390422 153.961981,26.2859013 150.873098,26.2859013 Z M150.945788,35.3435556 L146.974957,35.3435556 L146.974957,28.8998381 L150.945788,28.8998381 C153.027479,28.8998381 154.215939,30.6380906 154.215939,32.1207228 C154.215939,33.5752529 153.027479,35.3435556 150.945788,35.3435556 Z M168.180179,32.6430694 C166.165793,32.6430694 164.071029,33.5376281 163.209599,35.5201934 L165.683703,36.563117 C166.216356,35.5201934 167.195419,35.1819351 168.230627,35.1819351 C169.676906,35.1819351 171.143817,36.0557335 171.16625,37.5985281 L171.16625,37.7958176 C170.66178,37.5027587 169.581653,37.0685526 168.25306,37.0685526 C165.588389,37.0685526 162.873271,38.5437343 162.873271,41.2966841 C162.873271,43.8147895 165.055789,45.4365589 167.509322,45.4365589 C169.385443,45.4365589 170.420651,44.5852439 171.070936,43.5949624 L171.166197,43.5949624 L171.166197,45.0475444 L173.858883,45.0475444 L173.858883,37.8390069 C173.858883,34.5072656 171.384832,32.6430694 168.180125,32.6430694 L168.180179,32.6430694 Z M167.843682,42.9410533 C166.931803,42.9410533 165.661103,42.4862575 165.661103,41.3493883 C165.661103,39.8949204 167.245699,39.3367806 168.617297,39.3367806 C169.844986,39.3367806 170.420483,39.6091955 171.166082,39.9682142 C170.947386,41.7082906 169.458156,42.9410533 167.843682,42.9410533 L167.843682,42.9410533 Z M183.669054,33.0546836 L180.46434,41.200907 L180.369079,41.200907 L177.056039,33.0546836 L174.049342,33.0546836 L179.027359,44.4387649 L176.187057,50.7734574 L179.10024,50.7734574 L186.77095,33.0546836 L183.669054,33.0546836 Z M158.537866,45.0776567 L161.33331,45.0776567 L161.33331,26.2859013 L158.537866,26.2859013 L158.537866,45.0776567 Z" id="path46"></path>
                    <path d="M15.1304309,12.3483121 C14.7010225,12.7852906 14.452514,13.4656242 14.452514,14.3466899 L14.452514,45.7736264 C14.452514,46.6546847 14.7010225,47.3350257 15.1304309,47.7720042 L15.2364124,47.8679245 L33.3519553,30.2644372 L33.3519553,29.8487703 L15.2364124,12.245283 L15.1304309,12.3483121 Z" id="path64"></path>
                    <path d="M15.2206424,47.8679245 L33.3519553,30.040622 L15.2358317,12.245283 C14.7519535,12.5223371 14.452514,13.1638183 14.452514,14.0035129 L14.452514,46.126752 C14.4590035,46.9664394 14.7476144,47.5610363 15.2206424,47.8679245 Z" id="path20903"></path>
                    <path d="M34.3319171,28.9433962 L40.0223464,23.535761 L16.8491081,11.4619139 C16.4588995,11.246483 16.0156636,11.1326994 15.5642458,11.1320755 L34.3296312,28.9412206 L34.3319171,28.9433962 Z" id="path20905"></path>
                    <path d="M34.3084744,30.0566038 L15.5642458,48.980774 C16.0347055,48.9887056 16.4981065,48.8647179 16.902794,48.6226316 L40.0223464,35.8144414 L34.3084744,30.0566038 Z" id="path20907"></path>
                    <path d="M47.7225108,27.3979998 L40.1808568,23.3773585 L34.4636872,28.9260558 L40.2233386,34.509434 L47.7202737,30.4996286 C49.3144634,29.6478193 49.3144634,28.2454776 47.7225534,27.3979998 L47.7225108,27.3979998 Z" id="path20909"></path>
                </g>
            </g>
        </g>
    </g>
</svg>