<svg xmlns="http://www.w3.org/2000/svg" xmlns:xlink="http://www.w3.org/1999/xlink" width="205" height="62" viewBox="0 0 205 62">
    <defs>
        <path id="9vo15xo8na" d="M0 60L202.5 60 202.5 0 0 0z"/>
    </defs>
    <g fill="none" fill-rule="evenodd">
        <g>
            <g transform="translate(-625 -768) translate(626 769)">
                <rect width="203" height="60" fill="#FFF" stroke="#CFCFCF" rx="8"/>
                <path fill="#000" d="M51.426 28.632c-.036-4.296 3.516-6.384 3.672-6.48-2.016-2.928-5.136-3.336-6.228-3.372-2.616-.276-5.16 1.572-6.492 1.572-1.356 0-3.42-1.536-5.628-1.5-2.844.048-5.52 1.692-6.972 4.26-3.012 5.22-.768 12.9 2.124 17.124 1.452 2.064 3.132 4.38 5.352 4.296 2.16-.084 2.976-1.38 5.58-1.38 2.592 0 3.348 1.38 5.604 1.332 2.328-.036 3.78-2.076 5.184-4.164 1.668-2.364 2.34-4.704 2.364-4.824-.06-.024-4.512-1.728-4.56-6.864M47.166 16.008c1.164-1.452 1.956-3.432 1.74-5.448-1.68.072-3.792 1.164-5.004 2.592-1.068 1.26-2.028 3.312-1.788 5.244 1.896.144 3.84-.96 5.052-2.388M77.598 36.84l-1.5-4.62c-.156-.48-.456-1.584-.888-3.336h-.06c-.18.756-.456 1.872-.84 3.336l-1.476 4.62h4.764zm5.172 7.392h-3.024l-1.656-5.208h-5.76l-1.572 5.208h-2.94l5.7-17.724h3.528l5.724 17.724zM94.53 37.788c0-1.248-.276-2.268-.84-3.072-.612-.84-1.44-1.26-2.472-1.26-.696 0-1.332.24-1.908.696-.564.468-.948 1.068-1.116 1.824-.084.348-.132.636-.132.864v2.136c0 .924.288 1.716.852 2.352.564.636 1.308.96 2.22.96 1.068 0 1.896-.42 2.496-1.236.6-.828.9-1.908.9-3.264m2.892-.096c0 2.172-.588 3.888-1.776 5.148-1.056 1.128-2.376 1.68-3.936 1.68-1.692 0-2.904-.6-3.648-1.812v6.708h-2.844V35.652c0-1.368-.036-2.76-.108-4.2h2.496l.156 2.028h.048c.948-1.524 2.388-2.292 4.308-2.292 1.512 0 2.76.6 3.768 1.788 1.032 1.2 1.536 2.76 1.536 4.716M109.218 37.788c0-1.248-.276-2.268-.84-3.072-.612-.84-1.44-1.26-2.472-1.26-.696 0-1.332.24-1.908.696-.564.468-.936 1.068-1.116 1.824-.084.348-.132.636-.132.864v2.136c0 .924.288 1.716.852 2.352.564.636 1.308.96 2.22.96 1.068 0 1.908-.42 2.496-1.236.612-.828.9-1.908.9-3.264m2.892-.096c0 2.172-.588 3.888-1.776 5.148-1.056 1.128-2.376 1.68-3.936 1.68-1.692 0-2.904-.6-3.648-1.812v6.708h-2.844V35.652c0-1.368-.036-2.76-.108-4.2h2.496l.156 2.028h.048c.948-1.524 2.388-2.292 4.308-2.292 1.512 0 2.76.6 3.768 1.788 1.032 1.2 1.536 2.76 1.536 4.716M128.55 39.264c0 1.512-.528 2.736-1.572 3.684-1.152 1.032-2.76 1.548-4.824 1.548-1.908 0-3.432-.372-4.584-1.104l.66-2.364c1.248.732 2.616 1.104 4.104 1.104 1.068 0 1.908-.24 2.496-.72.6-.48.9-1.128.9-1.932 0-.72-.252-1.32-.732-1.812-.492-.492-1.308-.948-2.448-1.368-3.132-1.164-4.68-2.856-4.68-5.076 0-1.452.552-2.64 1.644-3.576 1.092-.924 2.544-1.392 4.356-1.392 1.608 0 2.952.276 4.02.84l-.72 2.304c-1.008-.54-2.136-.816-3.408-.816-.996 0-1.788.252-2.352.732-.468.444-.708.972-.708 1.608 0 .696.276 1.284.816 1.728.468.42 1.332.876 2.58 1.368 1.524.612 2.64 1.332 3.36 2.16.732.828 1.092 1.86 1.092 3.084M137.958 33.588h-3.132v6.204c0 1.572.552 2.364 1.656 2.364.504 0 .924-.048 1.26-.132l.084 2.16c-.564.204-1.296.312-2.208.312-1.128 0-1.992-.348-2.628-1.032-.636-.684-.948-1.836-.948-3.444v-6.444h-1.86v-2.124h1.86v-2.34l2.784-.84v3.18h3.132v2.136M149.106 37.8c0-1.176-.252-2.172-.756-3.012-.6-1.02-1.452-1.524-2.556-1.524-1.14 0-2.016.504-2.604 1.524-.516.84-.756 1.86-.756 3.072 0 1.176.252 2.184.756 3.012.612 1.02 1.476 1.524 2.58 1.524 1.08 0 1.932-.516 2.556-1.548.516-.864.78-1.872.78-3.048m2.94-.06c0 1.968-.564 3.576-1.68 4.836-1.176 1.296-2.736 1.944-4.68 1.944-1.872 0-3.372-.624-4.488-1.86-1.116-1.236-1.668-2.808-1.668-4.704 0-1.98.576-3.6 1.716-4.86 1.152-1.26 2.7-1.896 4.644-1.896 1.872 0 3.384.624 4.524 1.872 1.092 1.2 1.632 2.76 1.632 4.668M161.286 33.948c-.276-.048-.576-.072-.9-.072-.996 0-1.776.372-2.316 1.128-.468.66-.708 1.512-.708 2.52v6.708h-2.844v-8.76c0-1.476-.024-2.82-.084-4.02h2.472l.108 2.448h.084c.3-.84.768-1.524 1.416-2.028.636-.456 1.32-.684 2.052-.684.264 0 .504.024.708.048l.012 2.712M171.27 36.504c.024-.84-.168-1.572-.552-2.184-.492-.792-1.248-1.188-2.256-1.188-.924 0-1.68.384-2.256 1.152-.468.612-.756 1.356-.84 2.208l5.904.012zm2.712.732c0 .504-.036.936-.108 1.284h-8.52c.036 1.26.444 2.232 1.236 2.892.72.588 1.644.888 2.784.888 1.26 0 2.412-.204 3.444-.6l.444 1.968c-1.212.528-2.64.792-4.284.792-1.98 0-3.54-.588-4.668-1.752-1.128-1.164-1.692-2.736-1.692-4.692 0-1.92.528-3.528 1.584-4.812 1.104-1.368 2.592-2.052 4.464-2.052 1.836 0 3.24.684 4.176 2.052.756 1.104 1.14 2.436 1.14 4.032zM73.674 16.536l-.732-2.28c-.072-.228-.216-.78-.444-1.644h-.024c-.096.372-.216.912-.42 1.644l-.72 2.28h2.34zm2.556 3.636h-1.488l-.816-2.556h-2.832l-.78 2.556h-1.44l2.796-8.712h1.728l2.832 8.712zM83.238 13.884l-2.376 6.288h-1.356l-2.304-6.288h1.5l1.068 3.324c.18.552.336 1.08.456 1.584h.036c.108-.456.264-.984.456-1.584l1.056-3.324h1.464M88.11 17.04c-1.548 0-2.328.372-2.328 1.272 0 .66.396.984.96.984.708 0 1.368-.54 1.368-1.284v-.972zm.192 3.132l-.108-.72h-.036c-.432.576-1.044.864-1.836.864-1.128 0-1.92-.792-1.92-1.848 0-1.548 1.344-2.352 3.672-2.352v-.12c0-.828-.444-1.236-1.308-1.236-.624 0-1.164.156-1.644.468l-.288-.912c.576-.36 1.308-.54 2.16-.54 1.644 0 2.472.864 2.472 2.604v2.316c0 .636.024 1.128.096 1.5l-1.26-.024z"/>
                <mask id="579zr2o4tb" fill="#fff">
                    <use xlink:href="#9vo15xo8na"/>
                </mask>
                <path fill="#000" d="M91.902 20.16h1.392v-6.276h-1.392v6.276zm.672-7.308c-.468 0-.828-.36-.828-.84s.372-.828.852-.828.864.348.852.828c0 .504-.36.84-.876.84zM95.778 20.16L97.17 20.16 97.17 11.004 95.778 11.004zM102.906 17.04c-1.548 0-2.328.372-2.328 1.272 0 .66.396.984.96.984.708 0 1.368-.54 1.368-1.284v-.972zm.192 3.132l-.108-.72h-.036c-.432.576-1.044.864-1.836.864-1.128 0-1.92-.792-1.92-1.848 0-1.548 1.344-2.352 3.672-2.352v-.12c0-.828-.444-1.236-1.308-1.236-.624 0-1.164.156-1.644.468l-.288-.924c.576-.36 1.308-.54 2.16-.54 1.644 0 2.472.864 2.472 2.604v2.316c0 .636.024 1.128.084 1.5h-1.248v-.012zM109.638 14.856c-.804 0-1.536.696-1.536 1.668v1.104c0 .864.66 1.572 1.512 1.572 1.044 0 1.668-.852 1.668-2.208 0-1.272-.648-2.136-1.644-2.136m.288 5.46c-.888 0-1.548-.372-1.98-1.116h-.024l-.084.972h-1.188c.036-.504.048-1.068.048-1.692v-7.476h1.404v3.804h.024c.42-.696 1.08-1.044 2.004-1.044 1.512 0 2.568 1.296 2.568 3.18 0 1.944-1.176 3.372-2.772 3.372M114.762 20.16L116.154 20.16 116.154 11.004 114.762 11.004zM122.478 16.368c0-.972-.492-1.656-1.38-1.656-.804 0-1.428.696-1.524 1.656h2.904zm1.272.996h-4.188c.024 1.188.816 1.86 1.98 1.86.624 0 1.188-.108 1.692-.3l.216.972c-.588.264-1.284.384-2.1.384-1.968 0-3.132-1.236-3.132-3.168 0-1.92 1.188-3.372 2.976-3.372 1.596 0 2.616 1.188 2.616 2.988 0 .252-.012.468-.06.636zM132.27 14.784c-1.008 0-1.656.948-1.656 2.256 0 1.296.66 2.232 1.644 2.232.984 0 1.644-1.008 1.644-2.268-.012-1.272-.648-2.22-1.632-2.22m-.06 5.532c-1.836 0-3.024-1.368-3.024-3.228 0-1.944 1.212-3.324 3.132-3.324 1.812 0 3.024 1.308 3.024 3.216 0 1.956-1.248 3.336-3.132 3.336M142.842 20.172h-1.392V16.56c0-1.116-.432-1.668-1.272-1.668-.828 0-1.392.708-1.392 1.536v3.732h-1.392v-4.476c0-.552-.012-1.152-.048-1.8h1.224l.06.972h.036c.372-.672 1.14-1.104 1.992-1.104 1.32 0 2.184 1.008 2.184 2.652v3.768M151.974 14.94h-1.536v3.048c0 .78.276 1.164.816 1.164.24 0 .456-.024.624-.06l.036 1.056c-.276.108-.636.156-1.08.156-1.104 0-1.752-.612-1.752-2.196V14.94h-.912v-1.044h.912v-1.152l1.368-.42v1.56h1.536v1.056M159.366 20.172h-1.392v-3.588c0-1.128-.432-1.692-1.272-1.692-.72 0-1.392.492-1.392 1.488v3.78h-1.392v-9.156h1.392v3.768h.024c.444-.684 1.068-1.02 1.884-1.02 1.332 0 2.148 1.032 2.148 2.676v3.744M165.222 16.368c0-.972-.492-1.656-1.38-1.656-.804 0-1.44.696-1.524 1.656h2.904zm1.272.996h-4.188c.024 1.188.816 1.86 1.98 1.86.624 0 1.188-.108 1.692-.3l.216.972c-.588.264-1.284.384-2.1.384-1.968 0-3.132-1.236-3.132-3.168 0-1.92 1.188-3.372 2.976-3.372 1.596 0 2.616 1.188 2.616 2.988 0 .252-.012.468-.06.636z" mask="url(#579zr2o4tb)"/>
            </g>
        </g>
    </g>
</svg>
