<?xml version="1.0" encoding="UTF-8"?>
<svg width="116px" height="116px" viewBox="0 0 116 116" version="1.1" xmlns="http://www.w3.org/2000/svg" xmlns:xlink="http://www.w3.org/1999/xlink">
    <title>ICON</title>
    <g id="Page-1" stroke="none" stroke-width="1" fill="none" fill-rule="evenodd">
        <g id="home-0" transform="translate(-524.000000, -2444.000000)">
            <g id="HOW" transform="translate(-2.000000, 2072.000000)">
                <g id="1" transform="translate(446.000000, 374.000000)">
                    <g id="ICON" transform="translate(82.000000, 0.000000)">
                        <path d="M56,112 C86.927946,112 112,86.927946 112,56 C112,25.072054 86.927946,0 56,0 C25.072054,0 0,25.072054 0,56 C0,86.927946 25.072054,112 56,112 Z" id="Oval-Copy" stroke="#FBBA00" stroke-width="3" stroke-linecap="round" stroke-dasharray="0,11"></path>
                        <circle id="Oval-Copy-2" fill="#000000" cx="56" cy="56" r="49"></circle>
                        <g id="inbox" transform="translate(31.000000, 27.000000)" fill="#FFFFFF" fill-rule="nonzero">
                            <path d="M49.82562,27.4621118 L43.2558212,13.5790142 C43.0631908,13.1903011 42.6455467,12.9613556 42.2093184,13.0053878 L36.6279329,13.0053878 C35.9857202,13.0053878 35.4651396,13.5190601 35.4651396,14.1527504 C35.4651396,14.7864406 35.9857202,15.3001129 36.6279329,15.3001129 L41.453486,15.3001129 L46.8604915,26.7737382 L40.2326032,26.7737382 C37.2275242,26.759134 34.4945316,28.4894564 33.2558435,31.1911224 C32.3586821,33.0493688 30.4580842,34.2325281 28.3720894,34.2316496 L21.6279106,34.2316496 C19.5419158,34.2325281 17.6414292,33.0493688 16.7441565,31.1911224 C15.5054684,28.4894564 12.7724758,26.759134 9.76739683,26.7737382 L3.25579894,26.7737382 L9.65110637,15.3001129 L13.3720671,15.3001129 C14.0142798,15.3001129 14.5348604,14.7864406 14.5348604,14.1527504 C14.5348604,13.5190601 14.0142798,13.0053878 13.3720671,13.0053878 L8.95347491,13.0053878 C8.53327131,12.9660773 8.12720062,13.1664732 7.90697209,13.5216955 L0.232580914,27.4047931 C0.0980400885,27.5225051 0.0146893209,27.6868846 0,27.8637821 L0,42.1484401 C0.0925872345,45.3637784 2.72909776,47.9400459 5.98834647,48 L44.0116535,48 C47.2710135,47.9400459 49.9074128,45.3637784 50,42.1484401 L50,27.8637821 C49.9778547,27.7173009 49.9177621,27.5789454 49.82562,27.4621118 Z M47.6744134,42.1483303 C47.5840518,44.0966175 45.9873672,45.6471876 44.0116535,45.7051651 L5.98834647,45.7051651 C4.01263282,45.6471876 2.41594815,44.0967273 2.32558657,42.1483303 L2.32558657,29.0684628 L9.76739683,29.0684628 C11.8533917,29.0675849 13.7538782,30.2507441 14.6511509,32.1089905 C15.889839,34.8106565 18.6228317,36.5409789 21.6279106,36.5263747 L28.3720894,36.5263747 C31.3771683,36.5409789 34.110161,34.8106565 35.3488491,32.1089905 C36.2460105,30.2507441 38.1466083,29.0675849 40.2326032,29.0684628 L47.6744134,29.0684628 L47.6744134,42.1483303 Z" id="Shape"></path>
                            <path d="M24.1819285,26.6457598 C24.5964808,27.0907847 25.2989603,27.1205265 25.750762,26.712183 C25.7742526,26.6910333 25.7967364,26.6687821 25.8182135,26.6457598 L33.7661872,18.7613273 C34.1534458,18.2527431 34.0488569,17.53134 33.5324002,17.1498743 C33.1168411,16.8429833 32.5453494,16.8429833 32.1297903,17.1498743 L26.1687821,23.020018 L26.1687821,1.15100641 C26.1687821,0.515303663 25.645502,0 24.9999591,0 C24.3544163,0 23.8311362,0.515303663 23.8311362,1.15100641 L23.8311362,23.0201281 L17.8701279,17.1499844 C17.3536713,16.7686289 16.6211015,16.8716235 16.233731,17.3802078 C15.9220897,17.7894325 15.9220897,18.3522128 16.233731,18.7614375 L24.1819285,26.6457598 Z" id="Path"></path>
                        </g>
                    </g>
                </g>
            </g>
        </g>
    </g>
</svg>