<?xml version="1.0" encoding="UTF-8"?>
<svg width="179px" height="53px" viewBox="0 0 179 53" version="1.1" xmlns="http://www.w3.org/2000/svg" xmlns:xlink="http://www.w3.org/1999/xlink">
    <title>Get_it_on_Google_Play_(2016)_(Print_2)</title>
    <g id="Page-1" stroke="none" stroke-width="1" fill="none" fill-rule="evenodd">
        <g id="home-0" transform="translate(-1385.000000, -6134.000000)" fill="#FFFFFF" fill-rule="nonzero">
            <g id="FOOTER" transform="translate(-300.000000, 5509.000000)">
                <g id="Group-12" transform="translate(1476.000000, 239.000000)">
                    <g id="Get_it_on_Google_Play_(2016)_(Print_2)" transform="translate(209.000000, 386.000000)">
                        <path d="M172.370379,1.06164261 C175.439868,1.06164261 177.937576,3.55762385 177.937576,6.62498204 L177.937576,46.3750111 C177.937576,49.4423761 175.439868,51.9383574 172.370379,51.9383574 L6.62962233,51.9383574 C3.56008239,51.9383574 1.06237538,49.4423761 1.06237538,46.3750111 L1.06237538,6.62498204 C1.06237538,3.55762385 3.56008239,1.06164261 6.62962233,1.06164261 L172.370379,1.06164261 L172.370379,1.06164261 Z M172.370379,0 L6.62962233,0 C2.98494987,0 0,2.9828952 0,6.62498204 L0,46.3750111 C0,50.017098 2.98494987,53 6.62962233,53 L172.370379,53 C176.015004,53 179,50.017098 179,46.3750111 L179,6.62498204 C179,2.9828952 176.015004,0 172.370379,0 L172.370379,0 Z" id="path16"></path>
                        <path d="M59.1049813,9 C57.9728209,9 56.9932255,9.38823637 56.1990364,10.1517856 C55.4021883,10.9149391 55,11.87275 55,13 C55,14.1272755 55.4014669,15.0828336 56.1977636,15.8519607 L56.1977636,15.8532371 L56.199067,15.8532371 C56.9933539,16.6108957 57.9724749,17 59.1050119,17 C60.2862124,17 61.2681449,16.6183307 62.0147745,15.8644503 L62.0160779,15.8631738 C62.6692256,15.2222804 63,14.3570531 63,13.3004041 L63,13.2355821 L62.992362,13.2304765 C62.9891035,13.0637147 62.9805205,12.8931557 62.9401734,12.7131832 L62.9172034,12.6148429 L58.9776947,12.6148429 L58.9776947,13.7566215 L61.702893,13.7566215 C61.6287661,14.29121 61.4719188,14.7405796 61.1555621,15.0479815 C60.6116631,15.574318 59.9310238,15.8394966 59.1049813,15.8394966 C58.3308353,15.8394966 57.6704309,15.5757476 57.0989504,15.0529658 L57.097647,15.0516894 C56.5371477,14.5247849 56.2575582,13.8454462 56.2575582,12.9987268 C56.2575582,12.1513436 56.5371901,11.4793889 57.0989204,10.9519994 C57.6701051,10.4234547 58.3299138,10.1654686 59.1049513,10.1654686 C59.9694464,10.1654686 60.6221444,10.4382226 61.1109822,10.9968712 L61.200082,11.0990854 L62.0478088,10.2714162 L61.9727095,10.1841615 C61.663674,9.82328474 61.2397142,9.53466504 60.7265776,9.32283999 C60.21273,9.11335713 59.6715023,9 59.1049513,9 L59.1049813,9 Z" id="path20"></path>
                        <polygon id="path24" points="64 9 64 17 70 17 70 15.7892634 65.5755446 15.7892634 65.5755446 13.5969063 69.5636902 13.5969063 69.5636902 12.4043935 65.5755446 12.4043935 65.5755446 10.2107366 70 10.2107366 70 10.0805511 70 9"></polygon>
                        <polygon id="path28" points="70 9 70 10.2107366 72.3252587 10.2107366 72.3252587 17 73.6747413 17 73.6747413 16.8698145 73.6747413 10.2107366 76 10.2107366 76 9"></polygon>
                        <polygon id="path32" points="79 9 79 17 79.1017475 17 80 17 80 9"></polygon>
                        <polygon id="path36" points="81 9 81 10.2107366 83.3308744 10.2107366 83.3308744 17 84.6705059 17 84.6705059 16.8698145 84.6705059 10.2107366 87 10.2107366 87 9"></polygon>
                        <path d="M95.0031286,9 C93.8706545,9 92.9115087,9.38921561 92.1469694,10.1604862 C91.3843084,10.9299443 91,11.8855986 91,13 C91,14.1144142 91.3843597,15.0700557 92.1469694,15.8395138 C92.9115087,16.6107844 93.8706545,17 95.0031286,17 C96.1295122,17 97.0884913,16.6108354 97.8530242,15.8395138 C98.6156916,15.0700557 99,14.1144078 99,13 C99,11.891987 98.614762,10.9417957 97.8467671,10.1667214 C97.0822085,9.38906883 96.1233768,9 95.0031286,9 L95.0031286,9 Z M95.0031286,10.1592417 C95.7783487,10.1592417 96.4266179,10.4227756 96.9577386,10.9557533 C97.4922891,11.4877544 97.7616224,12.1632113 97.7616224,13 C97.7616224,13.8368078 97.4924174,14.5110202 96.9577386,15.0430022 C96.4266179,15.5759033 95.7783359,15.8395138 95.0031286,15.8395138 C94.2214333,15.8395138 93.580306,15.5756033 93.0422614,15.0417577 C92.5082237,14.5098842 92.2383776,13.8363994 92.2383776,13 C92.2383776,12.1636006 92.5080891,11.4888713 93.0422614,10.9569978 C93.5803124,10.4232415 94.2214397,10.1592417 95.0031286,10.1592417 L95.0031286,10.1592417 Z" id="path40"></path>
                        <polygon id="path44" points="100 9 100 17 100.143211 17 101.400289 17 101.400289 12.0463783 101.364145 10.9515029 105.606947 17 107 17 107 9 105.592482 9 105.592482 13.6633022 105.628626 14.7542716 101.583999 9"></polygon>
                        <path d="M90.4335969,29.3555884 C87.275312,29.3555884 84.6952606,31.7695414 84.6952606,35.1001122 C84.6952606,38.4036888 87.275312,40.8429349 90.4335969,40.8429349 C93.5985782,40.8429349 96.1786776,38.4036888 96.1786776,35.1001122 C96.1786776,31.7695414 93.5985782,29.3555884 90.4335969,29.3555884 Z M90.4335969,38.580915 C88.7006527,38.580915 87.2097557,37.1443658 87.2097557,35.1001122 C87.2097557,33.0288575 88.7006527,31.6176153 90.4335969,31.6176153 C92.1665412,31.6176153 93.6641345,33.0288575 93.6641345,35.1001122 C93.6641345,37.1443658 92.1665412,38.580915 90.4335969,38.580915 Z M77.913107,29.3555884 C74.7481258,29.3555884 72.1747707,31.7695414 72.1747707,35.1001122 C72.1747707,38.4036888 74.7481258,40.8429349 77.913107,40.8429349 C81.0764073,40.8429349 83.6514365,38.4036888 83.6514365,35.1001122 C83.6514365,31.7695414 81.0764073,29.3555884 77.913107,29.3555884 Z M77.913107,38.580915 C76.1784887,38.580915 74.6825695,37.1443658 74.6825695,35.1001122 C74.6825695,33.0288575 76.1784887,31.6176153 77.913107,31.6176153 C79.6460444,31.6176153 81.1369483,33.0288575 81.1369483,35.1001122 C81.1369483,37.1443658 79.6460444,38.580915 77.913107,38.580915 Z M63.0142995,31.1162355 L63.0142995,33.5571826 L68.8181908,33.5571826 C68.6483412,34.9211849 68.1945721,35.9238957 67.4987076,36.6227404 C66.6516053,37.4667695 65.3321242,38.4036888 63.0142995,38.4036888 C59.4425486,38.4036888 56.6456544,35.5086018 56.6456544,31.9214675 C56.6456544,28.3342843 59.4425486,25.4392461 63.0142995,25.4392461 C64.9455326,25.4392461 66.350698,26.1971893 67.3877771,27.1796475 L69.1005392,25.4594917 C67.6499983,24.068544 65.7203892,23 63.0142995,23 C58.1163754,23 54,27.0024213 54,31.9214675 C54,36.8405136 58.1163754,40.8429349 63.0142995,40.8429349 C65.6615765,40.8429349 67.6499983,39.9718627 69.2131479,38.3378486 C70.8149795,36.7290789 71.314175,34.467052 71.314175,32.6405647 C71.314175,32.0733935 71.2685497,31.5517681 71.1828634,31.1162355 L63.0142995,31.1162355 Z M123.937463,33.008563 C123.464936,31.7239468 122.007904,29.3555884 119.039544,29.3555884 C116.098099,29.3555884 113.649161,31.6834555 113.649161,35.1001122 C113.649161,38.3175472 116.072899,40.8429349 119.321941,40.8429349 C121.949092,40.8429349 123.46519,39.2342209 124.088753,38.2973015 L122.139017,36.9924397 C121.488531,37.9479036 120.602742,38.580915 119.321941,38.580915 C118.049565,38.580915 117.136853,37.9951435 116.551923,36.8405136 L124.201362,33.6618689 L123.937463,33.008563 Z M116.138455,34.9211849 C116.073071,32.7064049 117.851222,31.5720207 119.125279,31.5720207 C120.123669,31.5720207 120.970825,32.0732959 121.253228,32.7908455 L116.138455,34.9211849 Z M109.921102,40.4934882 L112.435597,40.4934882 L112.435597,23.6127588 L109.921102,23.6127588 L109.921102,40.4934882 Z M105.803053,30.6351502 L105.71889,30.6351502 C105.154138,29.9632997 104.07675,29.3555884 102.711895,29.3555884 C99.8477735,29.3555884 97.2290402,31.8809204 97.2290402,35.1186568 C97.2290402,38.3378486 99.8477735,40.8429349 102.711895,40.8429349 C104.07675,40.8429349 105.154138,40.2301761 105.71889,39.5380731 L105.803053,39.5380731 L105.803053,40.3618078 C105.803053,42.5579944 104.634867,43.7379732 102.75068,43.7379732 C101.214405,43.7379732 100.261386,42.6238346 99.8680545,41.6869641 L97.6812862,42.603582 C98.3116492,44.1262171 99.9806563,46 102.75068,46 C105.698863,46 108.186483,44.2578975 108.186483,40.0191584 L108.186483,29.7050352 L105.803053,29.7050352 L105.803053,30.6351502 Z M102.927171,38.580915 C101.194227,38.580915 99.7436862,37.1241201 99.7436862,35.1186568 C99.7436862,33.0946489 101.194227,31.6176153 102.927171,31.6176153 C104.634867,31.6176153 105.981218,33.0946489 105.981218,35.1186568 C105.981218,37.1241201 104.634867,38.580915 102.927171,38.580915 Z M135.709972,23.6127588 L129.695977,23.6127588 L129.695977,40.4934882 L132.203783,40.4934882 L132.203783,34.0974084 L135.709972,34.0974084 C138.495104,34.0974084 141.226446,32.0733935 141.226446,28.8542087 C141.226446,25.6367667 138.488415,23.6127588 135.709972,23.6127588 Z M135.775357,31.7492957 L132.203604,31.7492957 L132.203604,25.9608715 L135.775357,25.9608715 C137.647833,25.9608715 138.71685,27.5223526 138.71685,28.8542087 C138.71685,30.1608204 137.647833,31.7492957 135.775357,31.7492957 Z M151.277648,29.3234352 C149.465714,29.3234352 147.581479,30.1270219 146.806624,31.9079703 L149.032075,32.8448339 C149.511195,31.9079703 150.391859,31.6041112 151.323026,31.6041112 C152.623951,31.6041112 153.943434,32.3890487 153.963612,33.7749489 L153.963612,33.9521751 C153.509843,33.6889188 152.538271,33.2988693 151.343204,33.2988693 C148.94634,33.2988693 146.504098,34.6240325 146.504098,37.0970213 C146.504098,39.3590482 148.467268,40.8158919 150.674214,40.8158919 C152.36178,40.8158919 153.292948,40.0511513 153.877877,39.1615764 L153.963564,39.1615764 L153.963564,40.4664382 L156.385628,40.4664382 L156.385628,33.9909723 C156.385628,30.9980522 154.160226,29.3234352 151.2776,29.3234352 L151.277648,29.3234352 Z M150.974971,38.5741665 C150.154738,38.5741665 149.011746,38.1656211 149.011746,37.1443658 C149.011746,35.8378098 150.437086,35.3364301 151.670835,35.3364301 C152.775138,35.3364301 153.292797,35.5811418 153.963461,35.9036501 C153.766744,37.4667695 152.427186,38.5741665 150.974971,38.5741665 L150.974971,38.5741665 Z M165.209853,29.6931903 L162.32722,37.0109843 L162.241534,37.0109843 L159.261462,29.6931903 L156.556946,29.6931903 L161.034659,39.9195684 L158.479815,45.610055 L161.100216,45.610055 L168,29.6931903 L165.209853,29.6931903 Z M142.604412,40.4934882 L145.118907,40.4934882 L145.118907,23.6127588 L142.604412,23.6127588 L142.604412,40.4934882 Z" id="path46"></path>
                        <path d="M13.6097845,11.0925515 C13.2235328,11.4850915 13,12.0962387 13,12.8877045 L13,41.1186813 C13,41.9101405 13.2235328,42.5212943 13.6097845,42.9138343 L13.7051147,43 L30,27.1866979 L30,26.8133021 L13.7051147,11 L13.6097845,11.0925515 Z" id="path64"></path>
                        <path d="M13.6909296,43 L30,26.9856435 L13.7045923,11 C13.2693451,11.2488791 13,11.8251249 13,12.5794269 L13,41.4358959 C13.0058373,42.1901913 13.2654421,42.7243207 13.6909296,43 Z" id="path20903"></path>
                        <path d="M30.8814732,26 L36,21.1422938 L15.1557304,10.2962956 C14.8047387,10.1027728 14.4060492,10.0005605 14,10 L30.879417,25.9980456 L30.8814732,26 Z" id="path20905"></path>
                        <path d="M30.8603866,27 L14,43.9996784 C14.4231773,44.0068034 14.8400054,43.8954245 15.2040207,43.6779572 L36,32.1722948 L30.8603866,27 Z" id="path20907"></path>
                        <path d="M42.9262786,24.6117625 L36.1425798,21 L31,25.984423 L36.180792,31 L42.9242663,27.3979714 C44.358236,26.6327868 44.358236,25.3730562 42.9263169,24.6117625 L42.9262786,24.6117625 Z" id="path20909"></path>
                    </g>
                </g>
            </g>
        </g>
    </g>
</svg>