<svg xmlns="http://www.w3.org/2000/svg" xmlns:xlink="http://www.w3.org/1999/xlink" width="203" height="60" viewBox="0 0 203 60">
    <defs>
        <path id="40pekqkjpa" d="M0 0L202.5 0 202.5 60 0 60z"/>
        <path id="ll6gjynk8c" d="M0 60L202.5 60 202.5 0 0 0z"/>
        <path id="6kscbf25he" d="M0 2.25V35.4c0 .9.3 1.65.75 2.1l.15.15 18.6-18.6v-.3L.6.15C.15.6 0 1.35 0 2.25"/>
        <path id="iw76bmf3pg" d="M.15 6.45v.45l6.15 6.15L13.8 9c2.1-1.2 2.1-3.15 0-4.35L6.45.45 6.3.3.15 6.45z"/>
        <path id="29bp40ncgi" d="M0 18.75c.75.75 1.8.75 3.15.15l21.9-12.6-6.3-6.3L0 18.75z"/>
        <path id="8w8r9gnavl" d="M0 .9l18.75 18.6 6.3-6.3L3.15.75C2.542.412 1.994.257 1.508.257.915.257.412.487 0 .9"/>
        <linearGradient id="rq5lin5qhj" x1="86.32%" x2="-49.955%" y1="30.776%" y2="135.949%">
            <stop offset="0%" stop-color="#FF3A44"/>
            <stop offset="100%" stop-color="#C31162"/>
        </linearGradient>
    </defs>
    <g fill="none" fill-rule="evenodd">
        <g>
            <g>
                <g transform="translate(-403 -769) translate(403 769)">
                    <g>
                        <mask id="4k04pi34sb" fill="#fff">
                            <use xlink:href="#40pekqkjpa"/>
                        </mask>
                        <path fill="#000" d="M195 60H7.5C3.3 60 0 56.7 0 52.5v-45C0 3.3 3.3 0 7.5 0H195c4.2 0 7.5 3.3 7.5 7.5v45c0 4.2-3.3 7.5-7.5 7.5" mask="url(#4k04pi34sb)"/>
                    </g>
                    <path fill="#FFF" d="M113.4 19.5v-9h1.35l4.35 7.05V10.5h1.2v9h-1.2l-4.65-7.35v7.35h-1.05zm-8.7-1.95c.6.6 1.5 1.05 2.4 1.05.9 0 1.8-.3 2.4-1.05.6-.6 1.05-1.5 1.05-2.55 0-1.05-.3-1.95-1.05-2.55-.6-.6-1.5-1.05-2.4-1.05-.9 0-1.8.3-2.4 1.05-.6.6-1.05 1.5-1.05 2.55 0 1.05.3 1.95 1.05 2.55zm5.7.75c-.9.9-1.95 1.35-3.3 1.35-1.35 0-2.4-.45-3.3-1.35-.9-.9-1.35-1.95-1.35-3.3 0-1.35.45-2.4 1.35-3.3.9-.9 1.95-1.35 3.3-1.35 1.35 0 2.4.45 3.3 1.35.9.9 1.35 1.95 1.35 3.3 0 1.35-.45 2.4-1.35 3.3zm-14.25 1.2h-1.2v-7.95H92.4V10.5h6.15v1.05H96v7.95h.15zm-6.3 0h1.2v-9h-1.2v9zm-6.9 0h-1.2v-7.95H79.2V10.5h6.3v1.05h-2.55v7.95zM78 11.55h-4.05v2.85h3.75v1.05h-3.75v2.85H78v1.2h-5.25v-9H78v1.05zm-6.9 3.75c0 1.2-.3 2.25-1.05 3-.9.9-1.95 1.35-3.3 1.35-1.35 0-2.4-.45-3.3-1.35-.9-.9-1.35-1.95-1.35-3.3 0-1.35.45-2.4 1.35-3.3.9-.9 1.95-1.35 3.3-1.35.6 0 1.2.15 1.8.45.6.3 1.05.6 1.35 1.05l-.75.75c-.6-.75-1.35-1.05-2.4-1.05-.9 0-1.8.3-2.4 1.05-.75.6-1.05 1.5-1.05 2.55 0 1.05.3 1.95 1.05 2.55.75.6 1.5 1.05 2.4 1.05 1.05 0 1.8-.3 2.55-1.05.45-.45.75-1.05.75-1.8h-3.3v-1.2h4.35v.6z"/>
                    <path stroke="#FFF" stroke-width=".054" d="M113.4 19.5v-9h1.35l4.35 7.05V10.5h1.2v9h-1.2l-4.65-7.35v7.35h-1.05zm-8.7-1.95c.6.6 1.5 1.05 2.4 1.05.9 0 1.8-.3 2.4-1.05.6-.6 1.05-1.5 1.05-2.55 0-1.05-.3-1.95-1.05-2.55-.6-.6-1.5-1.05-2.4-1.05-.9 0-1.8.3-2.4 1.05-.6.6-1.05 1.5-1.05 2.55 0 1.05.3 1.95 1.05 2.55zm5.7.75c-.9.9-1.95 1.35-3.3 1.35-1.35 0-2.4-.45-3.3-1.35-.9-.9-1.35-1.95-1.35-3.3 0-1.35.45-2.4 1.35-3.3.9-.9 1.95-1.35 3.3-1.35 1.35 0 2.4.45 3.3 1.35.9.9 1.35 1.95 1.35 3.3 0 1.35-.45 2.4-1.35 3.3zm-14.25 1.2h-1.2v-7.95H92.4V10.5h6.15v1.05H96v7.95h.15zm-6.3 0h1.2v-9h-1.2v9zm-6.9 0h-1.2v-7.95H79.2V10.5h6.3v1.05h-2.55v7.95zM78 11.55h-4.05v2.85h3.75v1.05h-3.75v2.85H78v1.2h-5.25v-9H78v1.05zm-6.9 3.75c0 1.2-.3 2.25-1.05 3-.9.9-1.95 1.35-3.3 1.35-1.35 0-2.4-.45-3.3-1.35-.9-.9-1.35-1.95-1.35-3.3 0-1.35.45-2.4 1.35-3.3.9-.9 1.95-1.35 3.3-1.35.6 0 1.2.15 1.8.45.6.3 1.05.6 1.35 1.05l-.75.75c-.6-.75-1.35-1.05-2.4-1.05-.9 0-1.8.3-2.4 1.05-.75.6-1.05 1.5-1.05 2.55 0 1.05.3 1.95 1.05 2.55.75.6 1.5 1.05 2.4 1.05 1.05 0 1.8-.3 2.55-1.05.45-.45.75-1.05.75-1.8h-3.3v-1.2h4.35v.6z"/>
                    <mask id="ab4ra621id" fill="#fff">
                        <use xlink:href="#ll6gjynk8c"/>
                    </mask>
                    <path fill="#FFF" d="M160.35 45h2.85V26.25h-2.85V45zm25.2-12l-3.15 8.1h-.15l-3.3-8.1h-3l4.95 11.4-2.85 6.3h2.85l7.65-17.7h-3zm-15.75 9.9c-.9 0-2.25-.45-2.25-1.65 0-1.5 1.65-1.95 3-1.95 1.2 0 1.8.3 2.55.6-.3 1.8-1.8 3-3.3 3zm.3-10.35c-2.1 0-4.2.9-4.95 2.85l2.55 1.05c.6-1.05 1.5-1.35 2.55-1.35 1.5 0 2.85.9 3 2.4v.15c-.45-.3-1.65-.75-2.85-.75-2.7 0-5.4 1.5-5.4 4.2 0 2.55 2.25 4.2 4.65 4.2 1.95 0 2.85-.9 3.6-1.8h.15V45h2.7v-7.2c-.3-3.3-2.85-5.25-6-5.25zm-17.25 2.7h-4.05V28.8h4.05c2.1 0 3.3 1.8 3.3 3.15-.15 1.65-1.35 3.3-3.3 3.3zm-.15-9h-6.75V45h2.85v-7.05h3.9c3.15 0 6.15-2.25 6.15-5.85 0-3.6-3-5.85-6.15-5.85zM116.1 42.9c-1.95 0-3.6-1.65-3.6-3.9s1.65-3.9 3.6-3.9c1.95 0 3.45 1.65 3.45 3.9s-1.5 3.9-3.45 3.9zm3.3-8.85c-.75-.75-1.95-1.5-3.45-1.5-3.15 0-6.15 2.85-6.15 6.45s2.85 6.3 6.15 6.3c1.5 0 2.7-.75 3.3-1.5h.15v.9c0 2.4-1.35 3.75-3.45 3.75-1.65 0-2.85-1.2-3.15-2.25l-2.4 1.05c.75 1.65 2.55 3.75 5.7 3.75 3.3 0 6-1.95 6-6.6V33h-2.7v1.05zM123.9 45h2.85V26.25h-2.85V45zm7.05-6.15c0-2.4 1.95-3.75 3.3-3.75 1.05 0 2.1.6 2.4 1.35l-5.7 2.4zm8.7-2.1c-.6-1.5-2.1-4.05-5.4-4.05-3.3 0-6 2.55-6 6.45 0 3.6 2.7 6.45 6.3 6.45 2.85 0 4.65-1.8 5.25-2.85l-2.1-1.5c-.75 1.05-1.65 1.8-3.15 1.8s-2.4-.6-3.15-1.95l8.55-3.6-.3-.75zm-68.1-2.1v2.7H78c-.15 1.5-.75 2.7-1.5 3.45-.9.9-2.4 1.95-4.95 1.95-4.05 0-7.05-3.15-7.05-7.2 0-4.05 3.15-7.2 7.05-7.2 2.1 0 3.75.9 4.95 1.95l1.95-1.95c-1.65-1.5-3.75-2.7-6.75-2.7-5.4 0-10.05 4.5-10.05 9.9s4.65 9.9 10.05 9.9c3 0 5.1-.9 6.9-2.85 1.8-1.8 2.4-4.35 2.4-6.3 0-.6 0-1.2-.15-1.65h-9.3zM88.2 42.9c-1.95 0-3.6-1.65-3.6-3.9s1.65-3.9 3.6-3.9c1.95 0 3.6 1.5 3.6 3.9 0 2.25-1.65 3.9-3.6 3.9zm0-10.2c-3.6 0-6.45 2.7-6.45 6.45 0 3.6 2.85 6.45 6.45 6.45s6.45-2.7 6.45-6.45c0-3.9-2.85-6.45-6.45-6.45zm13.95 10.2c-1.95 0-3.6-1.65-3.6-3.9s1.65-3.9 3.6-3.9c1.95 0 3.6 1.5 3.6 3.9 0 2.25-1.65 3.9-3.6 3.9zm0-10.2c-3.6 0-6.45 2.7-6.45 6.45 0 3.6 2.85 6.45 6.45 6.45s6.45-2.7 6.45-6.45c0-3.9-2.85-6.45-6.45-6.45z" mask="url(#ab4ra621id)"/>
                </g>
                <g transform="translate(-403 -769) translate(403 769) translate(15 11.1)">
                    <mask id="xo9lieyd2f" fill="#fff">
                        <use xlink:href="#6kscbf25he"/>
                    </mask>
                    <path fill="#32BBFF" d="M0 2.25V35.4c0 .9.3 1.65.75 2.1l.15.15 18.6-18.6v-.3L.6.15C.15.6 0 1.35 0 2.25" mask="url(#xo9lieyd2f)"/>
                </g>
                <g transform="translate(-403 -769) translate(403 769) translate(34.2 23.4)">
                    <mask id="pyrtci9mih" fill="#fff">
                        <use xlink:href="#iw76bmf3pg"/>
                    </mask>
                    <path fill="#FFD500" d="M.15 6.45v.45l6.15 6.15L13.8 9c2.1-1.2 2.1-3.15 0-4.35L6.45.45 6.3.3.15 6.45z" mask="url(#pyrtci9mih)"/>
                </g>
                <g transform="translate(-403 -769) translate(403 769) translate(15.6 30)">
                    <mask id="8vxxg9l7qk" fill="#fff">
                        <use xlink:href="#29bp40ncgi"/>
                    </mask>
                    <path fill="url(#rq5lin5qhj)" d="M0 18.75c.75.75 1.8.75 3.15.15l21.9-12.6-6.3-6.3L0 18.75z" mask="url(#8vxxg9l7qk)"/>
                </g>
                <g transform="translate(-403 -769) translate(403 769) translate(15.6 10.5)">
                    <mask id="bsrir793om" fill="#fff">
                        <use xlink:href="#8w8r9gnavl"/>
                    </mask>
                    <path fill="#29CC5E" d="M0 .9l18.75 18.6 6.3-6.3L3.15.75C2.542.412 1.994.257 1.508.257.915.257.412.487 0 .9" mask="url(#bsrir793om)"/>
                </g>
                <g>
                    <path fill="#000" d="M25.5 25.65L3.75 37.95c-1.2.75-2.25.6-3 0l-.15.15.15.15c.75.6 1.8.75 3 0l21.75-12.6z" transform="translate(-403 -769) translate(403 769) translate(15 10.5)"/>
                    <path fill="#000" d="M33 21.45l-7.5 4.2.15.15L33 21.6c1.05-.6 1.5-1.35 1.5-2.1 0 .75-.6 1.35-1.5 1.95zM.6 37.95c-.45-.45-.6-1.2-.6-2.1V36c0 .9.3 1.65.75 2.1v-.15H.6z" transform="translate(-403 -769) translate(403 769) translate(15 10.5)"/>
                    <path fill="#FFF" d="M3.75.9L33 17.55c.9.6 1.5 1.2 1.5 1.95 0-.75-.45-1.5-1.5-2.1L3.75.75C1.65-.45 0 .45 0 2.85V3C0 .75 1.65-.3 3.75.9" transform="translate(-403 -769) translate(403 769) translate(15 10.5)"/>
                </g>
            </g>
        </g>
    </g>
</svg>
