<?xml version="1.0" encoding="UTF-8"?>
<svg width="200px" height="59px" viewBox="0 0 200 59" version="1.1" xmlns="http://www.w3.org/2000/svg" xmlns:xlink="http://www.w3.org/1999/xlink">
    <title>Get_it_on_Google_Play_(2016)_(Print_2) Copy</title>
    <g id="Page-1" stroke="none" stroke-width="1" fill="none" fill-rule="evenodd">
        <g id="home-0" transform="translate(-744.000000, -5560.000000)" fill="#000000">
            <g id="Get_it_on_Google_Play_(2016)_(Print_2)-Copy" transform="translate(744.000000, 5560.000000)">
                <path d="M192.592602,1.18182857 C196.022198,1.18182857 198.812934,3.96037372 198.812934,7.37498001 L198.812934,51.6250124 C198.812934,55.0396263 196.022198,57.8181714 192.592602,57.8181714 L7.40739925,57.8181714 C3.97774569,57.8181714 1.18701159,55.0396263 1.18701159,51.6250124 L1.18701159,7.37498001 C1.18701159,3.96037372 3.97774569,1.18182857 7.40739925,1.18182857 L192.592602,1.18182857 L192.592602,1.18182857 Z M192.592602,0 L7.40739925,0 C3.33513952,0 0,3.32058145 0,7.37498001 L0,51.6250124 C0,55.6794109 3.33513952,59 7.40739925,59 L192.592602,59 C196.664809,59 200,55.6794109 200,51.6250124 L200,7.37498001 C200,3.32058145 196.664809,0 192.592602,0 L192.592602,0 Z" id="path16" fill-rule="nonzero"></path>
                <g id="_Group_" transform="translate(11.111111, 10.018868)">
                    <g id="_Group_3">
                        <path d="M24.7209839,19.5930076 C24.7572803,16.7666713 26.2342195,14.1559963 28.6343535,12.6756369 C27.1133388,10.496318 24.6570698,9.16411961 22.0065214,9.08092185 C19.2179284,8.78727104 16.514509,10.754978 15.093493,10.754978 C13.644977,10.754978 11.4570996,9.11007701 9.10111679,9.15870783 C6.00125778,9.25918221 3.18140498,10.9844799 1.67326051,13.7033647 C-1.53839408,19.2818637 0.857211299,27.480379 3.93370737,31.9896165 C5.47294349,34.197662 7.27186861,36.6641055 9.62572579,36.57664 C11.9291165,36.4807945 12.7893882,35.1030881 15.5697777,35.1030881 C18.3243611,35.1030881 19.1314761,36.57664 21.5330929,36.5210286 C24.0047385,36.4807779 25.5619924,34.3031704 27.0472249,32.0742165 C28.1531635,30.5009034 29.0041815,28.7620499 29.5687557,26.9220659 C26.6331914,25.6764429 24.7244102,22.7906699 24.7209839,19.5930076 L24.7209839,19.5930076 Z" id="_Path_"></path>
                        <path d="M20.1847626,6.11534192 C21.5324064,4.49230214 22.1963394,2.40615948 22.0355658,0.299936403 C19.9766657,0.516884951 18.0748188,1.50409409 16.7089685,3.06486216 C15.3602542,4.60476963 14.6769986,6.61938085 14.8096917,8.6649693 C16.8961991,8.68652207 18.8772939,7.74680359 20.1847626,6.11534192 L20.1847626,6.11534192 Z" id="_Path_2"></path>
                    </g>
                    <g id="Group" transform="translate(40.050440, 14.994084)">
                        <path d="M13.7869822,15.9927115 L5.92656552,15.9927115 L4.03889644,21.5845885 L0.709536534,21.5845885 L8.1547962,0.896084525 L11.6138844,0.896084525 L19.059144,21.5845885 L15.6730072,21.5845885 L13.7869822,15.9927115 Z M6.74065519,13.4123462 L12.9713315,13.4123462 L9.89981733,4.33714352 L9.81386322,4.33714352 L6.74065519,13.4123462 Z" id="Shape" fill-rule="nonzero"></path>
                        <path d="M35.1383741,14.0436138 C35.1383741,18.7308978 32.6377008,21.7423929 28.86399,21.7423929 C26.9133919,21.8447602 25.0760351,20.8197748 24.1334752,19.1034341 L24.0620682,19.1034341 L24.0620682,26.5744531 L20.9759571,26.5744531 L20.9759571,6.50100643 L23.9631944,6.50100643 L23.9631944,9.00978325 L24.0199547,9.00978325 C25.0043888,7.30420272 26.8437269,6.27965849 28.8072298,6.34318536 C32.6230374,6.34320202 35.1383741,9.36934139 35.1383741,14.0436138 Z M31.9663089,14.0436138 C31.9663089,10.9898187 30.3932458,8.9821275 27.9931235,8.9821275 C25.6351646,8.9821275 24.0491319,11.032102 24.0491319,14.0436138 C24.0491319,17.0827814 25.6351646,19.1181117 27.9931235,19.1181117 C30.3932624,19.1181117 31.9663089,17.1250813 31.9663089,14.0436138 Z" id="Shape" fill-rule="nonzero"></path>
                        <path d="M51.6862666,14.0436138 C51.6862666,18.7308978 49.1855933,21.7423929 45.4118825,21.7423929 C43.4612844,21.8447602 41.6239276,20.8197748 40.6813678,19.1034341 L40.6099607,19.1034341 L40.6099607,26.5744531 L37.5238496,26.5744531 L37.5238496,6.50100643 L40.5110205,6.50100643 L40.5110205,9.00978325 L40.5677808,9.00978325 C41.5522221,7.30420375 43.3915672,6.27966555 45.3550725,6.34320202 C49.1709964,6.34320202 51.6862666,9.36934139 51.6862666,14.0436138 Z M48.514218,14.0436138 C48.514218,10.9898187 46.9411383,8.9821275 44.541016,8.9821275 C42.1830571,8.9821275 40.5970245,11.032102 40.5970245,14.0436138 C40.5970245,17.0827814 42.1830571,19.1181117 44.541016,19.1181117 C46.9411549,19.1181117 48.514218,17.1250813 48.514218,14.0436138 L48.514218,14.0436138 Z" id="Shape" fill-rule="nonzero"></path>
                        <path d="M62.6230631,15.8202462 C62.8517316,17.8718534 64.8383409,19.2189052 67.5530525,19.2189052 C70.1542769,19.2189052 72.0257216,17.8717867 72.0257216,16.0219166 C72.0257216,14.4161002 70.8970094,13.4545962 68.2244444,12.7956562 L65.5518795,12.1497444 C61.7651993,11.2321397 60.0072585,9.45549073 60.0072585,6.57251155 C60.0072585,3.00295326 63.1079665,0.551120631 67.5108892,0.551120631 C71.8683771,0.551120631 74.8555978,3.00295326 74.9561489,6.57251155 L71.8408107,6.57251155 C71.6543222,4.50789281 69.9531416,3.26165119 67.4670652,3.26165119 C64.9809888,3.26165119 63.2798249,4.5225537 63.2798249,6.35776294 C63.2798249,7.82040252 64.3663738,8.68106295 67.0243418,9.33991966 L69.2963466,9.89959884 C73.5273777,10.9034361 75.2853185,12.60853 75.2853185,15.6346361 C75.2853185,19.5051756 72.2121769,21.9293525 67.3243508,21.9293525 C62.7511307,21.9293525 59.6634088,19.5621198 59.4639342,15.8200962 L62.6230631,15.8202462 Z" id="Path"></path>
                        <path d="M81.945699,2.93144814 L81.945699,6.50100643 L84.804769,6.50100643 L84.804769,8.95283905 L81.945699,8.95283905 L81.945699,17.2682415 C81.945699,18.5600485 82.5181673,19.1620277 83.7749804,19.1620277 C84.1143985,19.1560899 84.4532675,19.1321772 84.7901721,19.0903893 L84.7901721,21.5275777 C84.2251074,21.6335018 83.6507667,21.6814744 83.076022,21.6707545 C80.0320909,21.6707545 78.8449909,20.5237404 78.8449909,17.5984612 L78.8449909,8.95283905 L76.6589402,8.95283905 L76.6589402,6.50100643 L78.8449577,6.50100643 L78.8449577,2.93144814 L81.945699,2.93144814 Z" id="Path"></path>
                        <path d="M86.4605978,14.0436138 C86.4605978,9.29776963 89.2466833,6.31554627 93.5912515,6.31554627 C97.9504001,6.31554627 100.723516,9.29770298 100.723516,14.0436138 C100.723516,18.8024862 97.964997,21.7716814 93.5912515,21.7716814 C89.2190504,21.7716814 86.4605978,18.8024695 86.4605978,14.0436138 Z M97.5790172,14.0436138 C97.5790172,10.788065 96.0919082,8.86662307 93.5912349,8.86662307 C91.0905616,8.86662307 89.60508,10.8027092 89.60508,14.0436138 C89.60508,17.3121742 91.0905616,19.2189885 93.5912349,19.2189885 C96.0919082,19.2189885 97.5790172,17.3121742 97.5790172,14.0436138 L97.5790172,14.0436138 Z" id="Shape" fill-rule="nonzero"></path>
                        <path d="M103.267897,6.50100643 L106.21131,6.50100643 L106.21131,9.06832682 L106.282717,9.06832682 C106.693185,7.41562624 108.202624,6.27818027 109.899117,6.3431687 C110.254764,6.34192291 110.609429,6.38067182 110.956472,6.45868979 L110.956472,9.3546805 C110.50749,9.21704034 110.039124,9.15384523 109.569848,9.16758766 C108.66256,9.13066129 107.784508,9.49341698 107.16624,10.1606058 C106.547973,10.8277946 106.251259,11.7327601 106.354008,12.6378851 L106.354008,21.5845552 L103.267897,21.5845552 L103.267897,6.50100643 Z" id="Path"></path>
                        <path d="M125.185281,17.1543531 C124.770124,19.8925228 122.112139,21.7716647 118.711422,21.7716647 C114.337677,21.7716647 111.622948,18.8317413 111.622948,14.1151856 C111.622948,9.38398561 114.352274,6.31552961 118.581694,6.31552961 C122.741368,6.31552961 125.357189,9.18223188 125.357189,13.7556274 L125.357189,14.8164089 L114.738253,14.8164089 L114.738253,15.0035018 C114.63911,16.1264447 115.025611,17.2380025 115.799444,18.0554308 C116.573278,18.8728591 117.659858,19.3173719 118.782796,19.2758994 C120.28042,19.4166765 121.692387,18.5539137 122.25487,17.1543365 L125.185281,17.1543531 Z M114.752821,12.6525627 L122.26945,12.6525627 C122.325456,11.6435066 121.959339,10.6567719 121.259307,9.93007273 C120.559275,9.20337355 119.5888,8.80259901 118.581694,8.82430643 C117.566621,8.81822921 116.591183,9.21919168 115.872189,9.9380724 C115.153195,10.6569531 114.75022,11.634186 114.752821,12.6525627 L114.752821,12.6525627 Z" id="Shape" fill-rule="nonzero"></path>
                    </g>
                </g>
                <g id="Group" transform="translate(55.555556, 7.792453)">
                    <path d="M3.80455141,1.15868589 C5.12061275,1.06894587 6.40966572,1.54472552 7.31690714,2.45506965 C8.22414856,3.36541379 8.65395019,4.61436715 8.48801202,5.85816369 C8.48801202,8.87970264 6.76939306,10.6165427 3.80455141,10.6165427 L0.209292038,10.6165427 L0.209292038,1.15868589 L3.80455141,1.15868589 Z M1.75522671,9.27899752 L3.63186713,9.27899752 C4.57239251,9.33241755 5.48818399,8.98030543 6.1249606,8.32042951 C6.76173721,7.6605536 7.05170585,6.76316618 6.91435311,5.87743813 C7.04171279,4.99538578 6.74756829,4.10540356 6.11237053,3.45090892 C5.47717278,2.79641428 4.56739435,2.4458992 3.63186713,2.49523244 L1.75522671,2.49523244 L1.75522671,9.27899752 Z" id="Shape" fill-rule="nonzero"></path>
                    <path d="M10.2343218,7.04458829 C10.1055211,5.76525491 10.751113,4.52713624 11.900338,3.84949589 C13.049563,3.17185554 14.5037235,3.17185554 15.6529485,3.84949589 C16.8021735,4.52713624 17.4477654,5.76525491 17.3189647,7.04458829 C17.450216,8.32529643 16.8052134,9.56581648 15.6549694,10.2449156 C14.5047254,10.9240148 13.0485611,10.9240148 11.8983171,10.2449156 C10.7480732,9.56581648 10.1030705,8.32529643 10.2343218,7.04458829 Z M15.7941985,7.04458829 C15.7941985,5.49744939 15.0627425,4.59269166 13.7790871,4.59269166 C12.4905274,4.59269166 11.7656604,5.49744939 11.7656604,7.04460414 C11.7656604,8.60413829 12.4905774,9.50192172 13.7790871,9.50192172 C15.0627759,9.50192172 15.7941985,8.59792481 15.7941985,7.04458829 L15.7941985,7.04458829 Z" id="Shape" fill-rule="nonzero"></path>
                    <polygon id="Path" points="26.7363801 10.6164 25.1985858 10.6164 23.6461288 5.35965929 23.5288429 5.35965929 21.9828916 10.6164 20.4597435 10.6164 18.3892503 3.47894249 19.8928479 3.47894249 21.2384241 8.92524169 21.3492043 8.92524169 22.8935209 3.47894249 24.315664 3.47894249 25.8599806 8.92524169 25.9772665 8.92524169 27.3163203 3.47894249 28.7987328 3.47894249"></polygon>
                    <path d="M30.540155,3.47894249 L31.9671858,3.47894249 L31.9671858,4.61279034 L32.0779659,4.61279034 C32.4631941,3.77797846 33.363361,3.26731584 34.3195087,3.34116824 C35.0598505,3.28827727 35.7853331,3.55814827 36.2911167,4.07458323 C36.7969004,4.5910182 37.0280981,5.29797434 36.9194313,5.99584283 L36.9194313,10.6163208 L35.4370188,10.6163208 L35.4370188,6.34956697 C35.4370188,5.20256304 34.912477,4.63214404 33.8161353,4.63214404 C33.3139728,4.60991997 32.8266373,4.79718556 32.4818934,5.14484556 C32.1371494,5.49250556 31.9693794,5.96588662 32.0225675,6.44088283 L32.0225675,10.6164 L30.540155,10.6164 L30.540155,3.47894249 Z" id="Path"></path>
                    <polygon id="Path" points="39.2815294 0.692675422 40.7639419 0.692675422 40.7639419 10.6163842 39.2815294 10.6163842"></polygon>
                    <path d="M42.8246599,7.04458829 C42.6959581,5.76517121 43.3416518,4.52702121 44.4909621,3.84937041 C45.6402724,3.17171961 47.0945076,3.17171961 48.2438179,3.84937041 C49.3931282,4.52702121 50.0388219,5.76517121 49.9101202,7.04458829 C50.0412047,8.32534228 49.3960839,9.56582727 48.2457829,10.2448965 C47.0954818,10.9239658 45.6392982,10.9239658 44.4889972,10.2448965 C43.3386961,9.56582727 42.6935753,8.32534228 42.8246599,7.04458829 L42.8246599,7.04458829 Z M48.3845366,7.04458829 C48.3845366,5.49744939 47.6530805,4.59269166 46.3694251,4.59269166 C45.0808654,4.59269166 44.3559985,5.49744939 44.3559985,7.04460414 C44.3559985,8.60413829 45.0809155,9.50192172 46.3694251,9.50192172 C47.6530972,9.50192172 48.3845366,8.59792481 48.3845366,7.04458829 L48.3845366,7.04458829 Z" id="Shape" fill-rule="nonzero"></path>
                    <path d="M51.4707343,8.59792481 C51.4707343,7.31314664 52.477481,6.57247531 54.2645098,6.46721083 L56.2991717,6.35576459 L56.2991717,5.73969558 C56.2991717,4.98585232 55.7746298,4.56018188 54.7613774,4.56018188 C53.9338374,4.56018188 53.3604195,4.84887061 53.1958756,5.35349337 L51.7607045,5.35349337 C51.9122036,4.12753713 53.1258311,3.34119994 54.8297872,3.34119994 C56.71295,3.34119994 57.7750784,4.23200907 57.7750784,5.73969558 L57.7750784,10.6164159 L56.3480477,10.6164159 L56.3480477,9.61336796 L56.2307619,9.61336796 C55.7460859,10.3458704 54.8841742,10.7739769 53.9745563,10.7340122 C53.3368924,10.7970374 52.7009283,10.600804 52.2238857,10.1938243 C51.7468431,9.78684468 51.4732467,9.20710402 51.4707343,8.59792481 L51.4707343,8.59792481 Z M56.2991717,7.98803758 L56.2991717,7.39132227 L54.4648849,7.50276851 C53.4304474,7.5685489 52.9612873,7.90290349 52.9612873,8.53212857 C52.9612873,9.17450974 53.5477332,9.54833255 54.3541715,9.54833255 C54.8315656,9.5942518 55.3081327,9.45410817 55.6747765,9.15998351 C56.0414203,8.86585884 56.266746,8.44293838 56.2991717,7.98803758 Z" id="Shape" fill-rule="nonzero"></path>
                    <path d="M59.7233815,7.04458829 C59.7233815,4.78927199 60.9435314,3.36053779 62.8413403,3.36053779 C63.7996393,3.31858121 64.6971751,3.80650167 65.1447872,4.61274279 L65.2555673,4.61274279 L65.2555673,0.692675422 L66.7379798,0.692675422 L66.7379798,10.6163842 L65.3174714,10.6163842 L65.3174714,9.48871809 L65.2001856,9.48871809 C64.7187384,10.28827 63.8101447,10.7679429 62.841357,10.7340122 C60.9305034,10.7340914 59.7233815,9.30532553 59.7233815,7.04458829 Z M61.2547201,7.04458829 C61.2547201,8.55845658 62.0057099,9.46941194 63.2616911,9.46941194 C64.5111166,9.46941194 65.2833083,8.54531635 65.2833083,7.05078591 C65.2833083,5.56322978 64.5030095,4.62596227 63.2616911,4.62596227 C62.0138003,4.62596227 61.25467,5.5430994 61.25467,7.04458829 L61.2547201,7.04458829 Z" id="Shape" fill-rule="nonzero"></path>
                    <path d="M72.8712744,7.04458829 C72.7424737,5.76525491 73.3880656,4.52713624 74.5372906,3.84949589 C75.6865156,3.17185554 77.1406761,3.17185554 78.2899011,3.84949589 C79.4391261,4.52713624 80.084718,5.76525491 79.9559173,7.04458829 C80.0871686,8.32529643 79.442166,9.56581648 78.291922,10.2449156 C77.141678,10.9240148 75.6855137,10.9240148 74.5352697,10.2449156 C73.3850257,9.56581648 72.7400231,8.32529643 72.8712744,7.04458829 L72.8712744,7.04458829 Z M78.4311344,7.04458829 C78.4311344,5.49744939 77.6996951,4.59269166 76.4160397,4.59269166 C75.12748,4.59269166 74.402613,5.49744939 74.402613,7.04460414 C74.402613,8.60413829 75.12753,9.50192172 76.4160397,9.50192172 C77.6997118,9.50192172 78.4311344,8.59792481 78.4311344,7.04458829 Z" id="Shape" fill-rule="nonzero"></path>
                    <path d="M81.944956,3.47894249 L83.3719867,3.47894249 L83.3719867,4.61279034 L83.4827669,4.61279034 C83.867995,3.77797846 84.7681619,3.26731584 85.7243096,3.34116824 C86.4646514,3.28827727 87.190134,3.55814827 87.6959177,4.07458323 C88.2017013,4.5910182 88.432899,5.29797434 88.3242323,5.99584283 L88.3242323,10.6163208 L86.8418198,10.6163208 L86.8418198,6.34956697 C86.8418198,5.20256304 86.3172779,4.63214404 85.2209362,4.63214404 C84.7187737,4.60991997 84.2314383,4.79718556 83.8866943,5.14484556 C83.5419503,5.49250556 83.3741803,5.96588662 83.4273684,6.44088283 L83.4273684,10.6164 L81.944956,10.6164 L81.944956,3.47894249 Z" id="Path"></path>
                    <path d="M96.7007043,1.7019368 L96.7007043,3.51145227 L98.3281102,3.51145227 L98.3281102,4.69794028 L96.7007043,4.69794028 L96.7007043,8.36805802 C96.7007043,9.11570365 97.0248877,9.44308393 97.7628328,9.44308393 C97.9517572,9.44250941 98.140492,9.43165504 98.3281102,9.41057415 L98.3281102,10.5838902 C98.0618934,10.6291451 97.7921678,10.6532212 97.5217387,10.6558682 C95.8731643,10.6558682 95.2166571,10.1048029 95.2166571,8.72870891 L95.2166571,4.69787688 L94.0242148,4.69787688 L94.0242148,3.51138887 L95.2166571,3.51138887 L95.2166571,1.7019368 L96.7007043,1.7019368 Z" id="Path"></path>
                    <path d="M100.35298,0.692675422 L101.822365,0.692675422 L101.822365,4.62594642 L101.939651,4.62594642 C102.343383,3.78382835 103.259304,3.27251498 104.229986,3.34736586 C104.966124,3.30930403 105.681785,3.58511634 106.182041,4.09967771 C106.682297,4.61423908 106.915041,5.31395482 106.81688,6.00823808 L106.81688,10.6164 L105.332983,10.6164 L105.332983,6.35573289 C105.332983,5.21568742 104.774162,4.63830996 103.726763,4.63830996 C103.211027,4.59811841 102.702916,4.77627594 102.33827,5.12515379 C101.973623,5.47403165 101.789623,5.95805526 101.835459,6.44782543 L101.835459,10.6164 L100.353047,10.6164 L100.35298,0.692675422 Z" id="Path"></path>
                    <path d="M115.460586,8.68924067 C115.044901,10.0355663 113.673772,10.9054423 112.205791,10.7541584 C111.204189,10.7792821 110.241593,10.3847907 109.573404,9.67535236 C108.905214,8.96591398 108.598982,8.0132496 108.735958,7.07012376 C108.60262,6.12437688 108.907705,5.17018599 109.572174,4.45475407 C110.236642,3.73932216 111.195111,3.33304754 112.199269,3.34118409 C114.289312,3.34118409 115.550181,4.69800368 115.550181,6.93929212 L115.550181,7.43080635 L110.246061,7.43080635 L110.246061,7.50974282 C110.199124,8.03937821 110.389488,8.56325577 110.770338,8.9525377 C111.151187,9.34181962 111.687184,9.5603853 112.24651,9.55448262 C112.971764,9.63721483 113.677749,9.29537612 114.033555,8.68919312 L115.460586,8.68924067 Z M110.246028,6.3890352 L114.040028,6.3890352 C114.077816,5.90463862 113.898568,5.42760341 113.546458,5.07548657 C113.194348,4.72336973 112.702121,4.52891832 112.191078,4.54005149 C111.673112,4.533868 111.17447,4.72671125 110.808263,5.07483636 C110.442057,5.42296147 110.239327,5.89686115 110.246061,6.3890352 L110.246028,6.3890352 Z" id="Shape" fill-rule="nonzero"></path>
                </g>
            </g>
        </g>
    </g>
</svg>