<?xml version="1.0" encoding="UTF-8"?>
<svg width="180px" height="53px" viewBox="0 0 180 53" version="1.1" xmlns="http://www.w3.org/2000/svg" xmlns:xlink="http://www.w3.org/1999/xlink">
    <title>Get_it_on_Google_Play_(2016)_(Print_2) Copy</title>
    <g id="Page-1" stroke="none" stroke-width="1" fill="none" fill-rule="evenodd">
        <g id="home-0" transform="translate(-1176.000000, -6134.000000)" fill="#FFFFFF">
            <g id="FOOTER" transform="translate(-300.000000, 5509.000000)">
                <g id="Group-12" transform="translate(1476.000000, 239.000000)">
                    <g id="Get_it_on_Google_Play_(2016)_(Print_2)-Copy" transform="translate(0.000000, 386.000000)">
                        <path d="M173.333342,1.06164261 C176.419979,1.06164261 178.93164,3.55762385 178.93164,6.62498204 L178.93164,46.3750111 C178.93164,49.4423761 176.419979,51.9383574 173.333342,51.9383574 L6.66665932,51.9383574 C3.57997112,51.9383574 1.06831043,49.4423761 1.06831043,46.3750111 L1.06831043,6.62498204 C1.06831043,3.55762385 3.57997112,1.06164261 6.66665932,1.06164261 L173.333342,1.06164261 L173.333342,1.06164261 Z M173.333342,0 L6.66665932,0 C3.00162557,0 0,2.9828952 0,6.62498204 L0,46.3750111 C0,50.017098 3.00162557,53 6.66665932,53 L173.333342,53 C176.998328,53 180,50.017098 180,46.3750111 L180,6.62498204 C180,2.9828952 176.998328,0 173.333342,0 L173.333342,0 Z" id="path16" fill-rule="nonzero"></path>
                        <g id="_Group_" transform="translate(10.000000, 9.000000)">
                            <g id="_Group_3">
                                <path d="M22.2488855,17.6004984 C22.2815523,15.0615861 23.6107975,12.7164035 25.7709182,11.3865891 C24.402005,9.42889585 22.1913628,8.23217524 19.8058692,8.15743827 C17.2961355,7.89365026 14.8630581,9.66125144 13.5841437,9.66125144 C12.2804793,9.66125144 10.3113896,8.1836285 8.19100512,8.22731381 C5.401132,8.31757046 2.86326448,9.86741417 1.50593446,12.3098022 C-1.38455467,17.3209962 0.771490169,24.6857642 3.54033664,28.7364352 C4.92564914,30.7199337 6.54468175,32.9355524 8.66315321,32.8569817 C10.7362048,32.7708832 11.5104494,31.5332825 14.0128,31.5332825 C16.491925,31.5332825 17.2183285,32.8569817 19.3797836,32.8070257 C21.6042646,32.7708682 23.0057932,30.8147124 24.3425024,28.8124317 C25.3378472,27.3991166 26.1037633,25.8370956 26.6118801,24.1842287 C23.9698723,23.0652792 22.2519692,20.4729746 22.2488855,17.6004984 L22.2488855,17.6004984 Z" id="_Path_"></path>
                                <path d="M18.1662864,5.49344275 C19.3791658,4.03545785 19.9767055,2.16146529 19.8320092,0.269434396 C17.9789991,0.46432038 16.2673369,1.35113537 15.0380717,2.75318127 C13.8242288,4.13648798 13.2092987,5.94622348 13.3287225,7.78378598 C15.2065792,7.80314694 16.9895645,6.95899306 18.1662864,5.49344275 L18.1662864,5.49344275 Z" id="_Path_2"></path>
                            </g>
                            <g id="Group" transform="translate(36.045396, 13.469262)">
                                <path d="M12.408284,14.366334 L5.33390897,14.366334 L3.63500679,19.3895456 L0.63858288,19.3895456 L7.33931658,0.804957285 L10.4524959,0.804957285 L17.1532296,19.3895456 L14.1057065,19.3895456 L12.408284,14.366334 Z M6.06658967,12.0483788 L11.6741984,12.0483788 L8.9098356,3.89607807 L8.8324769,3.89607807 L6.06658967,12.0483788 Z" id="Shape" fill-rule="nonzero"></path>
                                <path d="M31.6245367,12.6154497 C31.6245367,16.8260607 29.3739307,19.5313021 25.977591,19.5313021 C24.2220527,19.6232592 22.5684316,18.7025095 21.7201277,17.160712 L21.6558614,17.160712 L21.6558614,23.8719663 L18.8783614,23.8719663 L18.8783614,5.83988713 L21.566875,5.83988713 L21.566875,8.09353411 L21.6179592,8.09353411 C22.5039499,6.56140244 24.1593542,5.64104915 25.9265068,5.69811566 C29.3607337,5.69813063 31.6245367,8.41652701 31.6245367,12.6154497 Z M28.769678,12.6154497 C28.769678,9.87221001 27.3539212,8.0686908 25.1938111,8.0686908 C23.0716481,8.0686908 21.6442188,9.91019333 21.6442188,12.6154497 C21.6442188,15.3455494 23.0716481,17.1738969 25.1938111,17.1738969 C27.3539361,17.1738969 28.769678,15.3835476 28.769678,12.6154497 Z" id="Shape" fill-rule="nonzero"></path>
                                <path d="M46.5176399,12.6154497 C46.5176399,16.8260607 44.267034,19.5313021 40.8706943,19.5313021 C39.115156,19.6232592 37.4615348,18.7025095 36.613231,17.160712 L36.5489647,17.160712 L36.5489647,23.8719663 L33.7714647,23.8719663 L33.7714647,5.83988713 L36.4599185,5.83988713 L36.4599185,8.09353411 L36.5110027,8.09353411 C37.3969998,6.56140337 39.0524105,5.64105549 40.8195652,5.69813063 C44.2538967,5.69813063 46.5176399,8.41652701 46.5176399,12.6154497 Z M43.6627962,12.6154497 C43.6627962,9.87221001 42.2470245,8.0686908 40.0869144,8.0686908 C37.9647514,8.0686908 36.537322,9.91019333 36.537322,12.6154497 C36.537322,15.3455494 37.9647514,17.1738969 40.0869144,17.1738969 C42.2470394,17.1738969 43.6627962,15.3835476 43.6627962,12.6154497 L43.6627962,12.6154497 Z" id="Shape" fill-rule="nonzero"></path>
                                <path d="M56.3607568,14.2114076 C56.5665584,16.0543768 58.3545068,17.2644403 60.7977473,17.2644403 C63.1388492,17.2644403 64.8231495,16.0543169 64.8231495,14.3925692 C64.8231495,12.9500561 63.8073084,12.0863322 61.402,11.494403 L58.9966916,10.9141771 C55.5886793,10.0898882 54.0065326,8.4939154 54.0065326,5.90412054 C54.0065326,2.69756818 56.7971698,0.495074465 60.7598003,0.495074465 C64.6815394,0.495074465 67.370038,2.69756818 67.460534,5.90412054 L64.6567296,5.90412054 C64.4888899,4.04946304 62.9578274,2.92995785 60.7203587,2.92995785 C58.4828899,2.92995785 56.9518424,4.06263298 56.9518424,5.71121078 C56.9518424,7.02510735 57.9297364,7.79824299 60.3219076,8.39009732 L62.366712,8.89285997 C66.1746399,9.7946121 67.7567867,11.3263066 67.7567867,14.0446731 C67.7567867,17.5215984 64.9909592,19.6992488 60.5919158,19.6992488 C56.4760177,19.6992488 53.6970679,17.5727517 53.5175408,14.2112729 L56.3607568,14.2114076 Z" id="Path"></path>
                                <path d="M73.7511291,2.63333477 L73.7511291,5.83988713 L76.3242921,5.83988713 L76.3242921,8.04238084 L73.7511291,8.04238084 L73.7511291,15.5121492 C73.7511291,16.672586 74.2663505,17.2133469 75.3974823,17.2133469 C75.7029587,17.208013 76.0079407,17.186532 76.3111549,17.1489937 L76.3111549,19.3383325 C75.8025967,19.4334847 75.2856901,19.4765787 74.7684198,19.466949 C72.0288818,19.466949 70.9604918,18.4365804 70.9604918,15.8087872 L70.9604918,8.04238084 L68.9930462,8.04238084 L68.9930462,5.83988713 L70.960462,5.83988713 L70.960462,2.63333477 L73.7511291,2.63333477 Z" id="Path"></path>
                                <path d="M77.814538,12.6154497 C77.814538,8.35223373 80.3220149,5.67328732 84.2321264,5.67328732 C88.1553601,5.67328732 90.6511644,8.35217387 90.6511644,12.6154497 C90.6511644,16.8903689 88.1684973,19.5576121 84.2321264,19.5576121 C80.2971454,19.5576121 77.814538,16.890354 77.814538,12.6154497 Z M87.8211155,12.6154497 C87.8211155,9.69097361 86.4827174,7.96493259 84.2321114,7.96493259 C81.9815054,7.96493259 80.644572,9.70412859 80.644572,12.6154497 C80.644572,15.5516141 81.9815054,17.2645151 84.2321114,17.2645151 C86.4827174,17.2645151 87.8211155,15.5516141 87.8211155,12.6154497 L87.8211155,12.6154497 Z" id="Shape" fill-rule="nonzero"></path>
                                <path d="M92.9411073,5.83988713 L95.5901793,5.83988713 L95.5901793,8.14612409 L95.6544457,8.14612409 C96.0238664,6.66149476 97.3823612,5.63972126 98.9092052,5.6981007 C99.2292873,5.6969816 99.5484863,5.73178994 99.8608247,5.80187388 L99.8608247,8.40335706 C99.4567406,8.27971421 99.0352114,8.22294571 98.6128628,8.23529061 C97.7963044,8.20211947 97.0060571,8.52798475 96.4496163,9.12732387 C95.8931756,9.72666299 95.6261335,10.5395981 95.7186073,11.3526765 L95.7186073,19.3895157 L92.9411073,19.3895157 L92.9411073,5.83988713 Z" id="Path"></path>
                                <path d="M112.666753,15.4098426 C112.293111,17.8695544 109.900925,19.5575971 106.84028,19.5575971 C102.903909,19.5575971 100.460654,16.916649 100.460654,12.679743 C100.460654,8.42968199 102.917046,5.67327236 106.723524,5.67327236 C110.467231,5.67327236 112.82147,8.24844558 112.82147,12.3567501 L112.82147,13.3096555 L103.264428,13.3096555 L103.264428,13.4777219 C103.175199,14.4864673 103.52305,15.4849853 104.2195,16.2192853 C104.91595,16.9535853 105.893873,17.3528934 106.904516,17.3156384 C108.252378,17.4420993 109.523149,16.667075 110.029383,15.4098277 L112.666753,15.4098426 Z M103.277539,11.3658614 L110.042505,11.3658614 C110.09291,10.4594212 109.763405,9.57303239 109.133376,8.92023482 C108.503348,8.26743726 107.62992,7.90741945 106.723524,7.92691934 C105.809959,7.92146014 104.932065,8.28164676 104.28497,8.92742097 C103.637875,9.57319518 103.275198,10.4510484 103.277539,11.3658614 L103.277539,11.3658614 Z" id="Shape" fill-rule="nonzero"></path>
                            </g>
                        </g>
                        <g id="Group" transform="translate(50.000000, 7.000000)">
                            <path d="M3.42409627,1.04085343 C4.60855147,0.960239514 5.76869915,1.38763479 6.58521643,2.20540155 C7.4017337,3.02316832 7.78855517,4.14510948 7.63921081,5.26241823 C7.63921081,7.97668203 6.09245375,9.53689426 3.42409627,9.53689426 L0.188362835,9.53689426 L0.188362835,1.04085343 L3.42409627,1.04085343 Z M1.57970404,8.33537066 L3.26868042,8.33537066 C4.11515326,8.38335814 4.9393656,8.06705403 5.51246454,7.47428414 C6.08556349,6.88151425 6.34653527,6.07538657 6.2229178,5.27973256 C6.33754151,4.48738045 6.07281146,3.68790489 5.50113348,3.09996903 C4.9294555,2.51203317 4.11065492,2.19716369 3.26868042,2.24147999 L1.57970404,2.24147999 L1.57970404,8.33537066 Z" id="Shape" fill-rule="nonzero"></path>
                            <path d="M9.21088966,6.32818948 C9.09496902,5.1789578 9.67600172,4.06674951 10.7103042,3.45802173 C11.7446067,2.84929396 13.0533512,2.84929396 14.0876537,3.45802173 C15.1219562,4.06674951 15.7029889,5.1789578 15.5870682,6.32818948 C15.7051944,7.47865611 15.124692,8.59302158 14.0894725,9.20305982 C13.0542529,9.81309806 11.743705,9.81309806 10.7084854,9.20305982 C9.67326585,8.59302158 9.09276349,7.47865611 9.21088966,6.32818948 Z M14.2147787,6.32818948 C14.2147787,4.93838674 13.5564682,4.12563827 12.4011784,4.12563827 C11.2414746,4.12563827 10.5890944,4.93838674 10.5890944,6.32820372 C10.5890944,7.72914117 11.2415197,8.53562459 12.4011784,8.53562459 C13.5564983,8.53562459 14.2147787,7.72355958 14.2147787,6.32818948 L14.2147787,6.32818948 Z" id="Shape" fill-rule="nonzero"></path>
                            <polygon id="Path" points="24.062742 9.53676611 22.6787272 9.53676611 21.2815159 4.81460919 21.1759586 4.81460919 19.7846024 9.53676611 18.4137691 9.53676611 16.5503252 3.12515173 17.9035631 3.12515173 19.1145817 8.01758999 19.2142839 8.01758999 20.6041688 3.12515173 21.8840976 3.12515173 23.2739826 8.01758999 23.3795398 8.01758999 24.5846883 3.12515173 25.9188595 3.12515173"></polygon>
                            <path d="M27.4861395,3.12515173 L28.7704672,3.12515173 L28.7704672,4.14369302 L28.8701693,4.14369302 C29.2168747,3.39377726 30.0270249,2.93504643 30.8875578,3.00138842 C31.5538654,2.9538762 32.2067998,3.19630268 32.662005,3.66021884 C33.1172103,4.12413499 33.3252883,4.75919729 33.2274882,5.3860961 L33.2274882,9.53669492 L31.893317,9.53669492 L31.893317,5.70384829 C31.893317,4.67348883 31.4212293,4.16107854 30.4345218,4.16107854 C29.9825755,4.14111455 29.5439736,4.30933618 29.233704,4.62164092 C28.9234345,4.93394567 28.7724415,5.35918628 28.8203108,5.78587779 L28.8203108,9.53676611 L27.4861395,9.53676611 L27.4861395,3.12515173 Z" id="Path"></path>
                            <polygon id="Path" points="35.3533765 0.622233853 36.6875477 0.622233853 36.6875477 9.53675187 35.3533765 9.53675187"></polygon>
                            <path d="M38.5421939,6.32818948 C38.4263623,5.17888262 39.0074866,4.06664618 40.0418659,3.45790901 C41.0762452,2.84917185 42.3850569,2.84917185 43.4194361,3.45790901 C44.4538154,4.06664618 45.0349397,5.17888262 44.9191081,6.32818948 C45.0370843,7.4786973 44.4564756,8.59303128 43.4212046,9.20304265 C42.3859336,9.81305402 41.0753684,9.81305402 40.0400975,9.20304265 C39.0048265,8.59303128 38.4242178,7.4786973 38.5421939,6.32818948 L38.5421939,6.32818948 Z M43.5460829,6.32818948 C43.5460829,4.93838674 42.8877725,4.12563827 41.7324826,4.12563827 C40.5727789,4.12563827 39.9203986,4.93838674 39.9203986,6.32820372 C39.9203986,7.72914117 40.5728239,8.53562459 41.7324826,8.53562459 C42.8877875,8.53562459 43.5460829,7.72355958 43.5460829,6.32818948 L43.5460829,6.32818948 Z" id="Shape" fill-rule="nonzero"></path>
                            <path d="M46.3236609,7.72355958 C46.3236609,6.56943681 47.2297329,5.90408799 48.8380588,5.80952838 L50.6692545,5.70941565 L50.6692545,5.15599773 C50.6692545,4.47881649 50.1971668,4.09643457 49.2852397,4.09643457 C48.5404536,4.09643457 48.0243775,4.35576512 47.8762881,4.80907032 L46.584634,4.80907032 C46.7209832,3.70778759 47.813248,3.0014169 49.3468085,3.0014169 C51.041655,3.0014169 51.9975706,3.80163526 51.9975706,5.15599773 L51.9975706,9.53678035 L50.7132429,9.53678035 L50.7132429,8.63573732 L50.6076857,8.63573732 C50.1714773,9.29374796 49.3957568,9.67831824 48.5771007,9.64241772 C48.0032032,9.69903362 47.4308354,9.52275611 47.0014971,9.15716423 C46.5721588,8.79157234 46.325922,8.27078835 46.3236609,7.72355958 L46.3236609,7.72355958 Z M50.6692545,7.17569477 L50.6692545,6.63966238 L49.0183964,6.73977511 C48.0874026,6.79886596 47.6651585,7.09921839 47.6651585,7.66445448 C47.6651585,8.24150875 48.1929599,8.57731568 48.9187543,8.57731568 C49.348409,8.61856518 49.7773194,8.49267344 50.1072988,8.22845976 C50.4372783,7.96424608 50.6400714,7.58433448 50.6692545,7.17569477 Z" id="Shape" fill-rule="nonzero"></path>
                            <path d="M53.7510434,6.32818948 C53.7510434,4.30222738 54.8491783,3.01878819 56.5572063,3.01878819 C57.4196754,2.98109838 58.2274576,3.41939981 58.6303085,4.1436503 L58.7300106,4.1436503 L58.7300106,0.622233853 L60.0641818,0.622233853 L60.0641818,9.53675187 L58.7857243,9.53675187 L58.7857243,8.5237637 L58.680167,8.5237637 C58.2468645,9.24200523 57.4291303,9.67289789 56.5572213,9.64241772 C54.837453,9.64248891 53.7510434,8.35902124 53.7510434,6.32818948 Z M55.1292481,6.32818948 C55.1292481,7.68810506 55.8051389,8.50642089 56.935522,8.50642089 C58.0600049,8.50642089 58.7549774,7.67630113 58.7549774,6.33375684 C58.7549774,4.9974776 58.0527086,4.15552543 56.935522,4.15552543 C55.8124203,4.15552543 55.129203,4.97939437 55.129203,6.32818948 L55.1292481,6.32818948 Z" id="Shape" fill-rule="nonzero"></path>
                            <path d="M65.584147,6.32818948 C65.4682263,5.1789578 66.049259,4.06674951 67.0835615,3.45802173 C68.1178641,2.84929396 69.4266085,2.84929396 70.460911,3.45802173 C71.4952135,4.06674951 72.0762462,5.1789578 71.9603256,6.32818948 C72.0784517,7.47865611 71.4979494,8.59302158 70.4627298,9.20305982 C69.4275102,9.81309806 68.1169623,9.81309806 67.0817428,9.20305982 C66.0465232,8.59302158 65.4660208,7.47865611 65.584147,6.32818948 L65.584147,6.32818948 Z M70.588021,6.32818948 C70.588021,4.93838674 69.9297256,4.12563827 68.7744357,4.12563827 C67.614732,4.12563827 66.9623517,4.93838674 66.9623517,6.32820372 C66.9623517,7.72914117 67.614777,8.53562459 68.7744357,8.53562459 C69.9297406,8.53562459 70.588021,7.72355958 70.588021,6.32818948 Z" id="Shape" fill-rule="nonzero"></path>
                            <path d="M73.7504604,3.12515173 L75.034788,3.12515173 L75.034788,4.14369302 L75.1344902,4.14369302 C75.4811955,3.39377726 76.2913457,2.93504643 77.1518786,3.00138842 C77.8181863,2.9538762 78.4711206,3.19630268 78.9263259,3.66021884 C79.3815312,4.12413499 79.5896091,4.75919729 79.491809,5.3860961 L79.491809,9.53669492 L78.1576378,9.53669492 L78.1576378,5.70384829 C78.1576378,4.67348883 77.6855501,4.16107854 76.6988426,4.16107854 C76.2468963,4.14111455 75.8082944,4.30933618 75.4980249,4.62164092 C75.1877553,4.93394567 75.0367623,5.35918628 75.0846316,5.78587779 L75.0846316,9.53676611 L73.7504604,9.53676611 L73.7504604,3.12515173 Z" id="Path"></path>
                            <path d="M87.0306339,1.52885848 L87.0306339,3.15435543 L88.4952992,3.15435543 L88.4952992,4.22018364 L87.0306339,4.22018364 L87.0306339,7.51706907 C87.0306339,8.18868294 87.322399,8.48277031 87.9865495,8.48277031 C88.1565815,8.48225421 88.3264428,8.47250368 88.4952992,8.45356661 L88.4952992,9.50756241 C88.255704,9.5482151 88.012951,9.56984281 87.7695648,9.57222063 C86.2858479,9.57222063 85.6949914,9.07719586 85.6949914,7.84104359 L85.6949914,4.22012669 L84.6217933,4.22012669 L84.6217933,3.15429847 L85.6949914,3.15429847 L85.6949914,1.52885848 L87.0306339,1.52885848 Z" id="Path"></path>
                            <path d="M90.3176822,0.622233853 L91.6401282,0.622233853 L91.6401282,4.15551119 L91.7456855,4.15551119 C92.1090447,3.39903225 92.9333739,2.93971685 93.8069873,3.00695578 C94.4695113,2.97276464 95.1136069,3.22052824 95.5638369,3.68276134 C96.0140669,4.14499443 96.223537,4.77355263 96.1351924,5.39723081 L96.1351924,9.53676611 L94.799685,9.53676611 L94.799685,5.70938717 C94.799685,4.68527853 94.2967454,4.16661742 93.3540864,4.16661742 C92.8899241,4.13051315 92.4326246,4.29055296 92.1044426,4.60395171 C91.7762605,4.91735046 91.6106603,5.35215134 91.6519135,5.79211437 L91.6519135,9.53676611 L90.3177423,9.53676611 L90.3176822,0.622233853 Z" id="Path"></path>
                            <path d="M103.914528,7.80558908 C103.540411,9.01500022 102.306395,9.79641424 100.985212,9.66051518 C100.08377,9.6830839 99.2174338,9.32871033 98.6160634,8.69141823 C98.014693,8.05412612 97.739084,7.19834286 97.8623622,6.35112813 C97.7423584,5.50155889 98.0169347,4.64440436 98.6149563,4.00172824 C99.212978,3.35905211 100.0756,2.99409355 100.979342,3.00140266 C102.860381,3.00140266 103.995163,4.2202406 103.995163,6.23360139 L103.995163,6.67513113 L99.2214552,6.67513113 L99.2214552,6.74604016 C99.1792113,7.22181432 99.3505392,7.6924162 99.6933039,8.04211013 C100.036069,8.39180406 100.518466,8.58814273 101.021859,8.58284032 C101.674587,8.65715908 102.309974,8.35008363 102.6302,7.80554636 L103.914528,7.80558908 Z M99.2214252,5.73930281 L102.636025,5.73930281 C102.670034,5.30416689 102.508711,4.87564374 102.191812,4.5593354 C101.874913,4.24302705 101.431909,4.06835036 100.97197,4.07835134 C100.505801,4.07279668 100.057023,4.24602875 99.727437,4.55875131 C99.3978515,4.87147386 99.2153946,5.29718036 99.2214552,5.73930281 L99.2214252,5.73930281 Z" id="Shape" fill-rule="nonzero"></path>
                        </g>
                    </g>
                </g>
            </g>
        </g>
    </g>
</svg>