<svg xmlns="http://www.w3.org/2000/svg" width="157" height="73" viewBox="0 0 157 73">
    <g fill="none" fill-rule="evenodd">
        <g fill="#FBBA00">
            <g>
                <g>
                    <g>
                        <path d="M4.774 2.393c0 1.322-1.068 2.394-2.388 2.394C1.07 4.787 0 3.715 0 2.393S1.069 0 2.386 0c1.32 0 2.388 1.071 2.388 2.393M19.097 2.393c0 1.322-1.069 2.394-2.388 2.394-1.318 0-2.386-1.072-2.386-2.394S15.39 0 16.709 0c1.32 0 2.388 1.071 2.388 2.393M32.226 2.393c0 1.322-1.069 2.394-2.387 2.394-1.32 0-2.387-1.072-2.387-2.394S28.52 0 29.839 0c1.318 0 2.387 1.071 2.387 2.393M46.548 2.393c0 1.322-1.068 2.394-2.388 2.394-1.318 0-2.386-1.072-2.386-2.394S42.842 0 44.16 0c1.32 0 2.388 1.071 2.388 2.393M59.677 2.393c0 1.322-1.068 2.394-2.387 2.394-1.318 0-2.387-1.072-2.387-2.394S55.972 0 57.29 0c1.32 0 2.387 1.071 2.387 2.393M4.774 15.557c0 1.322-1.068 2.394-2.388 2.394C1.07 17.95 0 16.879 0 15.557c0-1.321 1.069-2.393 2.386-2.393 1.32 0 2.388 1.072 2.388 2.393M19.097 15.557c0 1.322-1.069 2.394-2.388 2.394-1.318 0-2.386-1.072-2.386-2.394 0-1.321 1.068-2.393 2.386-2.393 1.32 0 2.388 1.072 2.388 2.393M32.226 15.557c0 1.322-1.069 2.394-2.387 2.394-1.32 0-2.387-1.072-2.387-2.394 0-1.321 1.068-2.393 2.387-2.393 1.318 0 2.387 1.072 2.387 2.393M46.548 15.557c0 1.322-1.068 2.394-2.388 2.394-1.318 0-2.386-1.072-2.386-2.394 0-1.321 1.068-2.393 2.386-2.393 1.32 0 2.388 1.072 2.388 2.393M59.677 15.557c0 1.322-1.068 2.394-2.387 2.394-1.318 0-2.387-1.072-2.387-2.394 0-1.321 1.069-2.393 2.387-2.393 1.32 0 2.387 1.072 2.387 2.393M4.774 30.517c0 1.651-1.068 2.991-2.388 2.991C1.07 33.508 0 32.168 0 30.517c0-1.653 1.069-2.992 2.386-2.992 1.32 0 2.388 1.34 2.388 2.992M19.097 30.517c0 1.651-1.069 2.991-2.388 2.991-1.318 0-2.386-1.34-2.386-2.991 0-1.653 1.068-2.992 2.386-2.992 1.32 0 2.388 1.34 2.388 2.992M32.226 30.517c0 1.651-1.069 2.991-2.387 2.991-1.32 0-2.387-1.34-2.387-2.991 0-1.653 1.068-2.992 2.387-2.992 1.318 0 2.387 1.34 2.387 2.992M46.548 30.517c0 1.651-1.068 2.991-2.388 2.991-1.318 0-2.386-1.34-2.386-2.991 0-1.653 1.068-2.992 2.386-2.992 1.32 0 2.388 1.34 2.388 2.992M59.677 30.517c0 1.651-1.068 2.991-2.387 2.991-1.318 0-2.387-1.34-2.387-2.991 0-1.653 1.069-2.992 2.387-2.992 1.32 0 2.387 1.34 2.387 2.992M4.774 43.68c0 1.652-1.068 2.992-2.388 2.992C1.07 46.672 0 45.332 0 43.68s1.069-2.991 2.386-2.991c1.32 0 2.388 1.34 2.388 2.991M19.097 43.68c0 1.652-1.069 2.992-2.388 2.992-1.318 0-2.386-1.34-2.386-2.992s1.068-2.991 2.386-2.991c1.32 0 2.388 1.34 2.388 2.991M32.226 43.68c0 1.652-1.069 2.992-2.387 2.992-1.32 0-2.387-1.34-2.387-2.992s1.068-2.991 2.387-2.991c1.318 0 2.387 1.34 2.387 2.991M46.548 43.68c0 1.652-1.068 2.992-2.388 2.992-1.318 0-2.386-1.34-2.386-2.992s1.068-2.991 2.386-2.991c1.32 0 2.388 1.34 2.388 2.991M59.677 43.68c0 1.652-1.068 2.992-2.387 2.992-1.318 0-2.387-1.34-2.387-2.992s1.069-2.991 2.387-2.991c1.32 0 2.387 1.34 2.387 2.991M4.774 57.443c0 1.321-1.068 2.393-2.388 2.393C1.07 59.836 0 58.764 0 57.443c0-1.322 1.069-2.394 2.386-2.394 1.32 0 2.388 1.072 2.388 2.394M19.097 57.443c0 1.321-1.069 2.393-2.388 2.393-1.318 0-2.386-1.072-2.386-2.393 0-1.322 1.068-2.394 2.386-2.394 1.32 0 2.388 1.072 2.388 2.394M32.226 57.443c0 1.321-1.069 2.393-2.387 2.393-1.32 0-2.387-1.072-2.387-2.393 0-1.322 1.068-2.394 2.387-2.394 1.318 0 2.387 1.072 2.387 2.394M46.548 57.443c0 1.321-1.068 2.393-2.388 2.393-1.318 0-2.386-1.072-2.386-2.393 0-1.322 1.068-2.394 2.386-2.394 1.32 0 2.388 1.072 2.388 2.394M59.677 57.443c0 1.321-1.068 2.393-2.387 2.393-1.318 0-2.387-1.072-2.387-2.393 0-1.322 1.069-2.394 2.387-2.394 1.32 0 2.387 1.072 2.387 2.394M4.774 70.607C4.774 71.929 3.706 73 2.386 73 1.07 73 0 71.929 0 70.607c0-1.322 1.069-2.394 2.386-2.394 1.32 0 2.388 1.072 2.388 2.394M19.097 70.607c0 1.322-1.069 2.393-2.388 2.393-1.318 0-2.386-1.071-2.386-2.393 0-1.322 1.068-2.394 2.386-2.394 1.32 0 2.388 1.072 2.388 2.394M32.226 70.607c0 1.322-1.069 2.393-2.387 2.393-1.32 0-2.387-1.071-2.387-2.393 0-1.322 1.068-2.394 2.387-2.394 1.318 0 2.387 1.072 2.387 2.394M46.548 70.607c0 1.322-1.068 2.393-2.388 2.393-1.318 0-2.386-1.071-2.386-2.393 0-1.322 1.068-2.394 2.386-2.394 1.32 0 2.388 1.072 2.388 2.394M59.677 70.607c0 1.322-1.068 2.393-2.387 2.393-1.318 0-2.387-1.071-2.387-2.393 0-1.322 1.069-2.394 2.387-2.394 1.32 0 2.387 1.072 2.387 2.394M74 2.393c0 1.322-1.068 2.394-2.388 2.394-1.318 0-2.386-1.072-2.386-2.394S70.294 0 71.612 0C72.932 0 74 1.071 74 2.393M74 15.557c0 1.322-1.068 2.394-2.388 2.394-1.318 0-2.386-1.072-2.386-2.394 0-1.321 1.068-2.393 2.386-2.393 1.32 0 2.388 1.072 2.388 2.393M74 30.517c0 1.651-1.068 2.991-2.388 2.991-1.318 0-2.386-1.34-2.386-2.991 0-1.653 1.068-2.992 2.386-2.992 1.32 0 2.388 1.34 2.388 2.992M74 43.68c0 1.652-1.068 2.992-2.388 2.992-1.318 0-2.386-1.34-2.386-2.992s1.068-2.991 2.386-2.991c1.32 0 2.388 1.34 2.388 2.991M74 57.443c0 1.321-1.068 2.393-2.388 2.393-1.318 0-2.386-1.072-2.386-2.393 0-1.322 1.068-2.394 2.386-2.394 1.32 0 2.388 1.072 2.388 2.394M74 70.607C74 71.929 72.932 73 71.612 73c-1.318 0-2.386-1.071-2.386-2.393 0-1.322 1.068-2.394 2.386-2.394 1.32 0 2.388 1.072 2.388 2.394" transform="translate(-318 -4220) translate(240 2899.994) translate(78 1320.006)"/>
                    </g>
                    <g>
                        <path d="M4.774 2.393c0 1.322-1.068 2.394-2.388 2.394C1.07 4.787 0 3.715 0 2.393S1.069 0 2.386 0c1.32 0 2.388 1.071 2.388 2.393M19.097 2.393c0 1.322-1.069 2.394-2.388 2.394-1.318 0-2.386-1.072-2.386-2.394S15.39 0 16.709 0c1.32 0 2.388 1.071 2.388 2.393M32.226 2.393c0 1.322-1.069 2.394-2.387 2.394-1.32 0-2.387-1.072-2.387-2.394S28.52 0 29.839 0c1.318 0 2.387 1.071 2.387 2.393M46.548 2.393c0 1.322-1.068 2.394-2.388 2.394-1.318 0-2.386-1.072-2.386-2.394S42.842 0 44.16 0c1.32 0 2.388 1.071 2.388 2.393M59.677 2.393c0 1.322-1.068 2.394-2.387 2.394-1.318 0-2.387-1.072-2.387-2.394S55.972 0 57.29 0c1.32 0 2.387 1.071 2.387 2.393M4.774 15.557c0 1.322-1.068 2.394-2.388 2.394C1.07 17.95 0 16.879 0 15.557c0-1.321 1.069-2.393 2.386-2.393 1.32 0 2.388 1.072 2.388 2.393M19.097 15.557c0 1.322-1.069 2.394-2.388 2.394-1.318 0-2.386-1.072-2.386-2.394 0-1.321 1.068-2.393 2.386-2.393 1.32 0 2.388 1.072 2.388 2.393M32.226 15.557c0 1.322-1.069 2.394-2.387 2.394-1.32 0-2.387-1.072-2.387-2.394 0-1.321 1.068-2.393 2.387-2.393 1.318 0 2.387 1.072 2.387 2.393M46.548 15.557c0 1.322-1.068 2.394-2.388 2.394-1.318 0-2.386-1.072-2.386-2.394 0-1.321 1.068-2.393 2.386-2.393 1.32 0 2.388 1.072 2.388 2.393M59.677 15.557c0 1.322-1.068 2.394-2.387 2.394-1.318 0-2.387-1.072-2.387-2.394 0-1.321 1.069-2.393 2.387-2.393 1.32 0 2.387 1.072 2.387 2.393M4.774 30.517c0 1.651-1.068 2.991-2.388 2.991C1.07 33.508 0 32.168 0 30.517c0-1.653 1.069-2.992 2.386-2.992 1.32 0 2.388 1.34 2.388 2.992M19.097 30.517c0 1.651-1.069 2.991-2.388 2.991-1.318 0-2.386-1.34-2.386-2.991 0-1.653 1.068-2.992 2.386-2.992 1.32 0 2.388 1.34 2.388 2.992M32.226 30.517c0 1.651-1.069 2.991-2.387 2.991-1.32 0-2.387-1.34-2.387-2.991 0-1.653 1.068-2.992 2.387-2.992 1.318 0 2.387 1.34 2.387 2.992M46.548 30.517c0 1.651-1.068 2.991-2.388 2.991-1.318 0-2.386-1.34-2.386-2.991 0-1.653 1.068-2.992 2.386-2.992 1.32 0 2.388 1.34 2.388 2.992M59.677 30.517c0 1.651-1.068 2.991-2.387 2.991-1.318 0-2.387-1.34-2.387-2.991 0-1.653 1.069-2.992 2.387-2.992 1.32 0 2.387 1.34 2.387 2.992M4.774 43.68c0 1.652-1.068 2.992-2.388 2.992C1.07 46.672 0 45.332 0 43.68s1.069-2.991 2.386-2.991c1.32 0 2.388 1.34 2.388 2.991M19.097 43.68c0 1.652-1.069 2.992-2.388 2.992-1.318 0-2.386-1.34-2.386-2.992s1.068-2.991 2.386-2.991c1.32 0 2.388 1.34 2.388 2.991M32.226 43.68c0 1.652-1.069 2.992-2.387 2.992-1.32 0-2.387-1.34-2.387-2.992s1.068-2.991 2.387-2.991c1.318 0 2.387 1.34 2.387 2.991M46.548 43.68c0 1.652-1.068 2.992-2.388 2.992-1.318 0-2.386-1.34-2.386-2.992s1.068-2.991 2.386-2.991c1.32 0 2.388 1.34 2.388 2.991M59.677 43.68c0 1.652-1.068 2.992-2.387 2.992-1.318 0-2.387-1.34-2.387-2.992s1.069-2.991 2.387-2.991c1.32 0 2.387 1.34 2.387 2.991M4.774 57.443c0 1.321-1.068 2.393-2.388 2.393C1.07 59.836 0 58.764 0 57.443c0-1.322 1.069-2.394 2.386-2.394 1.32 0 2.388 1.072 2.388 2.394M19.097 57.443c0 1.321-1.069 2.393-2.388 2.393-1.318 0-2.386-1.072-2.386-2.393 0-1.322 1.068-2.394 2.386-2.394 1.32 0 2.388 1.072 2.388 2.394M32.226 57.443c0 1.321-1.069 2.393-2.387 2.393-1.32 0-2.387-1.072-2.387-2.393 0-1.322 1.068-2.394 2.387-2.394 1.318 0 2.387 1.072 2.387 2.394M46.548 57.443c0 1.321-1.068 2.393-2.388 2.393-1.318 0-2.386-1.072-2.386-2.393 0-1.322 1.068-2.394 2.386-2.394 1.32 0 2.388 1.072 2.388 2.394M59.677 57.443c0 1.321-1.068 2.393-2.387 2.393-1.318 0-2.387-1.072-2.387-2.393 0-1.322 1.069-2.394 2.387-2.394 1.32 0 2.387 1.072 2.387 2.394M4.774 70.607C4.774 71.929 3.706 73 2.386 73 1.07 73 0 71.929 0 70.607c0-1.322 1.069-2.394 2.386-2.394 1.32 0 2.388 1.072 2.388 2.394M19.097 70.607c0 1.322-1.069 2.393-2.388 2.393-1.318 0-2.386-1.071-2.386-2.393 0-1.322 1.068-2.394 2.386-2.394 1.32 0 2.388 1.072 2.388 2.394M32.226 70.607c0 1.322-1.069 2.393-2.387 2.393-1.32 0-2.387-1.071-2.387-2.393 0-1.322 1.068-2.394 2.387-2.394 1.318 0 2.387 1.072 2.387 2.394M46.548 70.607c0 1.322-1.068 2.393-2.388 2.393-1.318 0-2.386-1.071-2.386-2.393 0-1.322 1.068-2.394 2.386-2.394 1.32 0 2.388 1.072 2.388 2.394M59.677 70.607c0 1.322-1.068 2.393-2.387 2.393-1.318 0-2.387-1.071-2.387-2.393 0-1.322 1.069-2.394 2.387-2.394 1.32 0 2.387 1.072 2.387 2.394M74 2.393c0 1.322-1.068 2.394-2.388 2.394-1.318 0-2.386-1.072-2.386-2.394S70.294 0 71.612 0C72.932 0 74 1.071 74 2.393M74 15.557c0 1.322-1.068 2.394-2.388 2.394-1.318 0-2.386-1.072-2.386-2.394 0-1.321 1.068-2.393 2.386-2.393 1.32 0 2.388 1.072 2.388 2.393M74 30.517c0 1.651-1.068 2.991-2.388 2.991-1.318 0-2.386-1.34-2.386-2.991 0-1.653 1.068-2.992 2.386-2.992 1.32 0 2.388 1.34 2.388 2.992M74 43.68c0 1.652-1.068 2.992-2.388 2.992-1.318 0-2.386-1.34-2.386-2.992s1.068-2.991 2.386-2.991c1.32 0 2.388 1.34 2.388 2.991M74 57.443c0 1.321-1.068 2.393-2.388 2.393-1.318 0-2.386-1.072-2.386-2.393 0-1.322 1.068-2.394 2.386-2.394 1.32 0 2.388 1.072 2.388 2.394M74 70.607C74 71.929 72.932 73 71.612 73c-1.318 0-2.386-1.071-2.386-2.393 0-1.322 1.068-2.394 2.386-2.394 1.32 0 2.388 1.072 2.388 2.394" transform="translate(-318 -4220) translate(240 2899.994) translate(78 1320.006) translate(83)"/>
                    </g>
                </g>
            </g>
        </g>
    </g>
</svg>
